<?xml version="1.0" encoding="UTF-8" standalone="no"?><!DOCTYPE svg PUBLIC "-//W3C//DTD SVG 1.1//EN" "http://www.w3.org/Graphics/SVG/1.1/DTD/svg11.dtd"><svg width="100%" height="100%" viewBox="0 0 375 380" version="1.1" xmlns="http://www.w3.org/2000/svg" xmlns:xlink="http://www.w3.org/1999/xlink" xml:space="preserve" xmlns:serif="http://www.serif.com/" style="fill-rule:evenodd;clip-rule:evenodd;stroke-linecap:square;stroke-miterlimit:1.5;"><circle cx="187.937" cy="190.409" r="174.89" style="fill:none;"/><clipPath id="_clip1"><circle cx="187.937" cy="190.409" r="174.89"/></clipPath><g clip-path="url(#_clip1)"><g><g><path d="M1158.61,226.626c-64.629,11.831 -131.598,22.967 -195.353,17.511c-13.362,-1.143 -27.145,-3.911 -36.805,-13.868c-6.112,-6.301 -10.346,-14.184 -15.753,-20.185c-6.772,-7.516 -15.018,-12.629 -28.472,-11.163c-25.87,2.82 -49.635,15.957 -73.575,29.584c-22.446,12.777 -45.062,25.993 -70.241,29.818c-18.32,2.783 -35.041,-0.164 -51.544,-4.539c-17.499,-4.639 -34.765,-10.864 -53.237,-14.33c-34.543,-6.483 -71.892,-3.573 -106.553,0.314c-139.507,15.649 -279.998,38.27 -418.82,59.617c-67.447,10.372 -135.083,24.508 -203.456,26.772c-3.592,0.119 -6.412,3.132 -6.293,6.724c0.119,3.593 3.132,6.413 6.724,6.294c68.891,-2.281 137.047,-16.466 205.005,-26.916c138.647,-21.32 278.961,-43.918 418.292,-59.547c33.407,-3.747 69.405,-6.705 102.699,-0.457c18.15,3.406 35.106,9.561 52.302,14.119c18.193,4.823 36.641,7.894 56.837,4.826c26.743,-4.063 50.888,-17.805 74.729,-31.375c22.347,-12.721 44.393,-25.323 68.543,-27.955c10.159,-1.108 15.421,4.115 20.211,10.367c4.238,5.532 8.139,11.829 13.253,17.101c11.893,12.259 28.593,16.369 45.044,17.777c59.129,5.059 121.001,-3.87 181.272,-14.563c-2.826,3.164 -5.59,6.391 -8.288,9.675c-35.521,43.246 -21.001,22.518 -53.961,69.328c-11.507,16.343 -19.781,35.172 -19.071,47.064c0.3,5.037 2.01,9.134 4.968,12.112c2.74,2.76 6.652,4.694 12.117,5.098c6.026,0.445 14.521,-1.091 25.905,-5.693c3.333,-1.348 4.944,-5.147 3.597,-8.479c-1.347,-3.332 -5.146,-4.944 -8.479,-3.597c-6.545,2.646 -11.872,4.162 -16.158,4.654c-3.047,0.35 -5.371,0.257 -7.025,-0.636c-1.091,-0.591 -1.552,-1.686 -1.779,-2.97c-0.289,-1.628 -0.2,-3.499 0.118,-5.547c1.53,-9.867 8.241,-22.839 16.457,-34.507c32.597,-46.296 18.245,-25.789 53.376,-68.56c6.23,-7.585 12.826,-14.853 19.755,-21.828c20.951,-3.828 41.638,-7.694 61.88,-11.073c108.676,-18.139 229.724,-28.007 329.334,-79.042c14.023,-7.184 47.459,-24.963 65.63,-44.755c8.952,-9.751 14.195,-20.165 13.52,-30.05c-0.671,-9.843 -6.556,-16.184 -14.814,-19.938c-10.057,-4.573 -23.992,-4.913 -32.748,-4.197c-43.788,3.584 -87.065,16.605 -129.081,28.656c-102.725,29.463 -221.067,70.801 -300.062,148.359Zm23.845,-4.386c14.252,-2.621 28.348,-5.177 42.232,-7.494c107.397,-17.926 227.1,-27.352 325.539,-77.787c11.392,-5.836 36.375,-18.942 54.12,-34.391c5.563,-4.844 10.404,-9.9 13.735,-15.052c2.786,-4.308 4.531,-8.609 4.239,-12.884c-0.412,-6.048 -5.503,-8.766 -11.105,-10.383c-7.547,-2.179 -16.448,-2.143 -22.399,-1.656c-42.938,3.514 -85.353,16.378 -126.553,28.194c-94.557,27.121 -202.863,64.084 -279.808,131.453Z" style="fill:#fff;"/><path d="M250.476,166.373c50.264,-12.631 100.388,-25.548 150.459,-39.655c3.459,-0.975 5.477,-4.575 4.502,-8.035c-0.975,-3.46 -4.575,-5.477 -8.035,-4.502c-72.979,20.562 -146.072,38.587 -219.566,56.902c-10.991,2.739 -31.555,10.556 -42.378,22.098c-4.293,4.579 -7.154,9.744 -7.987,15.312c-0.855,5.719 0.325,11.97 4.79,18.614c6.877,10.235 17.807,12.819 30.483,10.194c23.951,-4.962 54.918,-30.119 65.054,-38.97c3.406,-2.974 13.023,-11.806 18.417,-20.76c2.277,-3.779 3.794,-7.629 4.261,-11.198Zm-14.907,3.738c-18.18,4.55 -36.369,9.071 -54.583,13.61c-9.3,2.318 -26.869,8.603 -36.026,18.369c-2.367,2.524 -4.148,5.261 -4.607,8.33c-0.437,2.918 0.441,6.033 2.718,9.422c2.881,4.288 7.276,5.609 12.28,5.346c4.299,-0.227 8.988,-1.533 13.818,-3.446c20.05,-7.943 42.046,-26.222 50.062,-33.222c2.525,-2.204 9.039,-8.09 13.782,-14.607c0.922,-1.267 1.81,-2.541 2.556,-3.802Z" style="fill:#fff;"/></g></g></g><circle cx="187.937" cy="190.409" r="174.89" style="fill:none;stroke:#fff;stroke-width:12.92px;"/></svg>