<?xml version="1.0" encoding="UTF-8" standalone="no"?><!DOCTYPE svg PUBLIC "-//W3C//DTD SVG 1.1//EN" "http://www.w3.org/Graphics/SVG/1.1/DTD/svg11.dtd"><svg width="100%" height="100%" viewBox="0 0 517 517" version="1.1" xmlns="http://www.w3.org/2000/svg" xmlns:xlink="http://www.w3.org/1999/xlink" xml:space="preserve" xmlns:serif="http://www.serif.com/" style="fill-rule:evenodd;clip-rule:evenodd;stroke-linecap:square;stroke-miterlimit:1.5;"><circle cx="259.419" cy="258.905" r="241.435" style="fill:none;"/><clipPath id="_clip1"><circle cx="259.419" cy="258.905" r="241.435"/></clipPath><g clip-path="url(#_clip1)"><g><path d="M2714.01,-39.92l0.551,0.294l0.027,-0.526l-0.578,0.232Zm-134.737,62.748c0.209,-0.139 0.417,-0.278 0.626,-0.417c-0.179,-0.179 -0.449,-0.541 -0.521,-0.506c-0.297,0.147 -0.53,0.415 -0.786,0.641c0.225,0.094 0.454,0.188 0.681,0.282m-1536.97,295.915c0.801,1.784 1.77,3.654 4.076,3.934c1.918,0.23 1.955,-1.393 1.707,-2.583c-0.374,-1.806 -1.308,-3.408 -3.427,-3.601c-1.406,-0.128 -2.444,0.42 -2.356,2.25m-491.264,193.474c-0.558,-1.657 -1.728,-2.599 -3.488,-2.501c-1.285,0.07 -1.688,1.171 -1.715,2.253c-0.038,1.651 1.095,2.283 2.541,2.313c1.359,0.032 2.641,-0.227 2.662,-2.065m2007.74,-484.538c2.351,-0.051 3.138,-1.619 3.28,-3.599c0.152,-2.129 -1.178,-2.685 -3.018,-2.388c-2.157,0.35 -4.318,0.892 -3.891,3.764c0.289,1.948 2.009,2.137 3.629,2.223m88.578,-16.222c-2.052,1.21 -5.608,0.334 -6.172,3.868c-0.426,2.661 1.454,3.008 3.54,2.824c2.662,-0.237 5.592,-0.202 5.72,-3.956c0.065,-1.854 -0.938,-2.968 -3.088,-2.736m-465.528,60.708c1.78,0.211 4.563,0.786 4.409,-1.554c-0.283,-4.328 -4.243,-4.711 -7.644,-4.988c-2.3,-0.189 -5.707,-0.267 -5.204,2.93c0.738,4.686 5.474,2.622 8.439,3.612m241.782,-34.303c1.902,-2.334 7.593,1.686 7.705,-3.438c0.072,-3.265 -4.406,-3.203 -7.213,-3.224c-2.546,-0.018 -5.963,0.344 -6.244,3.432c-0.289,3.172 2.875,3.11 5.752,3.23m-629.975,91.804c-0.276,-3.508 -9.167,-6.712 -12.17,-3.907c-2.797,2.611 -5.26,3.864 -8.951,3.281c-1.238,-0.195 -2.876,0.379 -2.506,2.157c0.373,1.798 2.075,1.514 3.195,0.999c4.713,-2.161 9.206,-1.508 13.787,0.459c3.266,1.403 5.581,0.256 6.645,-2.989m339.2,-34.405c2.883,1.692 5.049,-0.371 7.35,-0.141c2.593,0.259 5.613,-1.277 7.722,0.619c3.311,2.974 7.694,4.804 10.559,2.036c3.192,-3.083 9.126,-3.382 10.04,-6.446c2.065,-6.938 6.916,-7.162 12.192,-7.778c1.838,-0.215 4.953,1.026 4.368,-2.42c-0.459,-2.708 -3.363,-2.214 -5.369,-1.765c-5.666,1.269 -12.663,5.605 -16.647,3.652c-10.486,-5.141 -5.757,6.786 -10.636,8.084c-3.146,0.835 -6.047,0.764 -9.062,1.119c-3.526,0.416 -7.913,-1.672 -10.517,3.04m409.863,-112.095l3.186,-0.095c4.059,1.083 7.791,-0.427 11.604,-1.415c3.625,-0.94 7.01,-1.282 7.541,3.93c0.236,2.314 0.232,5.388 3.801,4.533c2.496,-0.598 5.459,0.714 7.366,-3.152c2.621,-5.308 7.699,-7.189 13.371,-4.238c5.002,2.601 9.528,2.491 14.2,-0.681c4.793,-3.258 10.122,-4.341 15.936,-3.552c4.01,0.545 8.242,0.764 5.455,-5.616c-0.555,-1.272 -0.596,-2.853 1.044,-3.249c1.17,-0.285 3.458,-0.12 3.669,0.441c2.441,6.451 7.632,4.01 12.112,4.106c1.751,0.037 4.04,-0.045 4.558,2.3c0.376,1.707 1,4.23 -1.256,4.846c-3.739,1.016 -6.304,4.369 -10.959,3.879c-9.46,-0.998 -19.293,1.807 -27.586,4.499c-14.845,4.815 -30.576,3.492 -45.09,9.456c-8.736,3.59 -18.443,4.941 -27.988,6.608c-18.199,3.18 -36.838,5.208 -54.209,12.709c-4.129,1.784 -9.898,4.684 -13.216,3.887c-8.68,-2.084 -14.762,6.241 -22.953,3.984c-1.17,-0.321 -2.782,1.317 -2.776,3.216c4.753,3.212 9.344,3.375 14.116,-0.064c3.387,-2.442 7.625,-3.286 11.448,-2.185c8.533,2.457 16.48,-3.949 24.931,-1.152c0.831,0.275 2.159,-0.227 2.987,-0.777c4.466,-2.961 7.298,-0.93 9.978,2.778c3.708,5.13 7.894,9.367 14.271,3.402c1.208,-1.131 2.13,-1.045 3.482,-0.511c6.454,2.549 4.698,-1.312 3.037,-4.245c-2.915,-5.153 -1.499,-6.187 4.159,-7.446c7.882,-1.755 15.573,3.081 22.62,0.417c8.673,-3.28 16.417,-4.843 25.113,2.517c-6.176,-9.741 -0.114,-8.966 5.402,-9.802c5.042,-0.764 10.617,2.826 15.143,-1.785c1.498,-0.014 2.995,-0.026 4.494,-0.04c1.188,1.352 2.335,1.371 3.437,-0.104c2.093,-0.164 4.184,-0.329 6.276,-0.494c6.027,0.003 12.767,4.969 17.72,-2.538c3.123,0.461 6.134,3.04 9.413,0.497c7.94,-1.062 15.342,-5.248 24.041,-1.435c5.997,2.631 13.087,2.564 15.925,-5.966c1.088,0.003 2.177,0.005 3.265,0.006c10.248,-0.721 20.498,-1.438 30.744,-2.189c0.157,-0.012 0.285,-0.419 0.427,-0.641c1.886,-0.181 3.768,-0.363 5.654,-0.544c2.575,3.497 5.366,3.95 8.583,0.755c2.734,-2.714 6.342,-5.206 9.907,-4.199c10.813,3.054 21.471,2.573 31.735,-1.09c7.638,-2.726 15.506,1.129 22.337,-1.232c8.18,-2.829 16.174,-5.805 24.787,-6.879c1.6,-0.387 3.202,-0.773 4.801,-1.16c7.442,-0.186 14.882,-0.371 22.322,-0.556c1.117,0.024 2.234,0.048 3.351,0.071c2.442,3.689 4.641,9.959 8.111,0.574c0.615,-1.664 2.618,-1.574 4.202,-1.687c11.603,-0.83 22.882,-4.306 34.621,-4.143c2.642,0.038 5.193,-1.037 7.186,-3.003c2.24,0.334 4.515,0.935 6.511,-0.782c6.86,-0.019 13.556,-1.849 20.24,3.099c3.235,2.393 9.922,1.736 8.856,-6.174c5.961,0.878 12.1,-1.21 18.06,2.212c2.318,1.332 7.593,2.559 9.391,-1.199c2.443,-5.098 6.624,-5.331 10.99,-6.317c6.631,-1.496 13.106,-0.015 19.617,0.118c8.287,0.169 17.253,-0.898 24.864,-5.664c1.321,-0.828 2.399,-1.563 4.227,-1.65c11.798,-0.553 23.697,-0.661 35.336,-2.415c13.447,-2.026 27.371,-0.955 40.389,-6.142c2.551,-1.015 5.841,-0.687 8.705,-0.313c8.845,1.152 17.322,-1.109 25.91,-2.372c14.273,-2.098 28.263,-6.273 43.045,-4.404c6.468,0.818 13.842,1.623 19.612,-0.627c12.928,-5.044 25.829,-9.065 39.758,-8.763c2.576,0.056 4.705,-0.133 6.585,-1.745c2.957,-2.535 5.856,-3.199 10.058,-2.692c8.796,1.061 17.766,1.276 26.566,1.841c6.183,0.398 13.062,-4.225 20.355,-5.657c10.388,-2.041 20.496,-2.348 30.785,-2.444c3.006,-0.027 5.699,0.825 4.301,-3.668c-0.62,-1.993 -0.142,-3.478 1.031,-5.139c2.672,-3.784 1.032,-5.676 -3.046,-4.897c-5.092,0.974 -9.964,-0.522 -14.763,-0.503c-6.755,0.027 -12.074,-5.989 -18.252,-4.122c-10.266,3.104 -20.263,-0.61 -30.394,0.234c-5.092,0.425 -8.88,5.191 -14.204,3.639c-5.923,-1.728 -11.59,-1.787 -17.184,1.224c-1.039,0.559 -2.669,0.372 -3.936,0.105c-12.417,-2.621 -24.781,0.737 -37.172,0.263c-5.187,-0.199 -10.41,4.978 -13.814,3.909c-9.53,-2.99 -18.783,0.358 -28.155,-0.452c-8.725,-0.753 -18.006,5.864 -27.486,0.602c-5.105,5.322 -11.159,2.233 -16.977,2.113c-6.792,-0.137 -13.542,-0.823 -20.323,1.974c-4.95,2.041 -11.495,4.05 -15.976,2.4c-5.367,-1.973 -8.993,-0.951 -13.19,1.18c-3.461,1.756 -7.202,1.945 -10.891,1.994c-18.062,0.239 -35.981,3.418 -53.861,3.98c-19.992,0.628 -39.35,6.431 -59.461,5.305c-5.077,-0.285 -10.369,0.623 -15.677,0.257c-2.846,-0.197 -6.839,-0.778 -8.929,2.234c-5.006,7.22 -12.152,6.302 -19.405,5.875c-8.593,-0.505 -17.392,-2.104 -25.293,3.151c-5.299,-2.858 -10.819,-7.13 -14.185,2.237c-4.587,2.877 -10.099,-0.203 -14.742,2.297c-13.091,0.145 -25.773,4.262 -38.96,3.903c-3.377,-0.093 -7.445,0.628 -9.094,4.814l0.025,-0.02c-3.321,3.154 -7.388,3.441 -11.709,3.392c-5.211,-0.059 -10.628,-1.172 -15.445,2.003c-2.116,-0.039 -4.235,-0.077 -6.351,-0.116c-5.335,0.411 -10.67,0.822 -16.005,1.233c-3.227,-0.716 -6.414,-0.525 -9.572,0.401c-2.337,-1.026 -4.595,-1.338 -6.59,0.733c-3.41,-0.669 -6.231,1.504 -9.41,1.957c-4.032,-6.683 -8.543,-3.902 -11.936,0.137c-2.255,2.685 -4.326,4.678 -7.74,4.483c-12.18,-0.692 -23.059,4.932 -34.676,6.932c-0.508,-0.114 -1.016,-0.229 -1.523,-0.342c-2.368,-3.809 -7.759,-7.076 -2.077,-12.308c0.767,-0.708 0.738,-2.011 -0.307,-2.738c-1.666,-1.157 -2.975,-0.457 -3.846,1.116c-0.791,1.432 -1.556,2.998 -3.485,2.112c-0.75,-0.343 -1.429,-1.534 -1.551,-2.421c-0.3,-2.186 1.261,-3.334 3.034,-4.061c2.64,-1.082 5.841,-0.278 8.189,-2.394c3.184,0.703 6.369,0.933 9.553,-0.011c8.475,3.059 16.515,4.097 22.391,-4.848c2.984,0.651 5.533,-0.462 7.985,-1.971c7.689,5.527 7.689,5.527 9.898,-2.619l-0.115,0.11c3.139,-0.377 6.279,-0.753 9.418,-1.128c2.033,1.691 4.223,0.665 6.371,0.369c4.146,7.799 9.967,8.183 16.925,3.893c1.977,-1.218 3.785,-1.229 5.7,0.644c5.368,5.244 10.286,2.657 14.189,-1.83c3.489,-4.011 7.127,-4.471 11.085,-1.782c2.762,1.875 6.411,3.176 7.811,0.672c3.957,-7.074 8.129,-2.823 12.187,-0.785c1.882,-2.658 -1.985,-5.703 1.184,-7.577c3.038,-1.797 5.575,-0.171 8.02,1.611c0.626,0.455 1.569,0.503 2.137,1.002c3.62,3.191 6.54,4.427 6.455,-2.321c-0.038,-3.029 1.731,-3.761 4.069,-3.399c4.394,0.679 9.128,-0.646 13.174,2.033c2.538,1.679 5.086,0.703 6.221,-1.172c2.672,-4.411 5.193,-3.794 9.099,-1.582c2.784,1.577 7.465,3.013 5.184,-3.804c-1.462,-4.366 2.06,-3.924 4.528,-4.425c-0.224,2.015 0.694,2.98 2.696,2.772c0.822,-0.084 1.664,-0.632 1.234,-1.539c-0.877,-1.857 -2.567,-1.301 -4.093,-1.058c3.721,-3.139 9.569,-1.093 12.858,-5.279c5.83,-0.179 11.992,2.724 17.36,-2.1c0.748,-0.673 2.864,-0.682 3.825,-0.115c5.942,3.507 10.249,3.249 15.811,-2.125c2.509,-2.425 11.269,-0.434 14.677,1.657c9.727,5.969 16.885,-0.265 24.199,-3.353c5.149,-2.174 9.038,-4.113 15.295,-4.108c9.033,0.008 18.317,-1.106 27.535,-1.352c7.554,-0.203 14.892,-2.619 22.738,-0.166c4.178,1.306 9.492,-1.343 13.291,-3.12c8.375,-3.919 16.885,-3.84 25.513,-3.971c6.098,-0.095 12.196,0.019 18.103,-1.596c3.38,-0.922 6.18,0.677 9.252,1.09c3.566,0.485 9.06,2.662 8.635,-5.987c5.222,7.186 12.126,5.254 16.422,2.016c9.641,-7.271 18.618,-2.086 27.989,-0.996c6.163,0.716 13.318,3.997 17.302,-4.437c0.675,-1.428 1.84,-1.743 3.269,-0.864c8.343,5.127 19.247,4.064 26.221,-1.864c3.722,-3.163 8.806,-4.078 13.559,-3.979c9.174,0.19 18.723,-0.322 27.388,2.087c8.601,2.391 16.433,0.123 24.08,-1.307c6.411,-1.199 13.258,-2.307 19.769,-4.659c4.037,-1.46 11.496,-1.997 16.946,-0.445c11.044,3.146 22.593,2.535 33.368,4.714c10.544,2.132 20.009,-2.315 30.95,0.159c11.778,2.665 25.348,3.315 38.074,3.267c9.335,-0.037 12.282,5.471 15.918,11.402c4.581,7.467 0.483,18.167 -4.032,25.246c-6.719,10.531 -17.023,9.999 -26.486,12.49c-3.843,1.012 -6.767,2.818 -9.508,5.366c-2.379,-0.63 -4.399,0.354 -6.401,1.417c-2.116,-0.041 -4.232,-0.083 -6.347,-0.126c-5.495,-1.622 -10.737,-3.713 -16.852,-2.89c-5.925,0.796 -11.381,-0.666 -16.721,5.201c-3.666,4.029 -12.707,0.829 -17.806,6.377c-1.149,1.255 -3.076,-0.719 -4.313,-2.372c-3.066,-4.095 -6.892,-3.839 -10.045,-0.3c-3.814,4.281 -6.456,3.821 -10.343,-0.224c-2.776,-2.888 -7.043,-3.548 -10.121,0.746l-0.481,0.107l0.009,0.496c-4.433,2.234 -9.052,4.197 -12.205,8.311l-0.577,-0.227c-0,-0 -0.271,0.559 -0.274,0.561c-10.189,-4.055 -20.203,-5.789 -30.117,1.039c-4.269,2.937 -9.567,2.782 -13.393,-0.101c-4.52,-3.404 -7.368,-1.987 -10.077,1.469c-3.833,4.892 -9.169,4.687 -14.45,4.889c-1.237,0.046 -2.781,0.307 -3.23,-1.434c-0.441,-1.713 0.759,-2.269 2.094,-2.723c1.854,-0.63 5.184,-0.991 2.407,-3.827c-3.502,-3.572 -10.331,-4.871 -11.875,-1.072c-2.554,6.288 -8.326,6.23 -12.08,9.628c-3.959,3.583 -8.081,3.938 -11.688,-0.555c-1.569,-1.956 -3.957,-3.147 -5.41,-1.486c-6.262,7.163 -14.931,1.919 -22.116,4.705c-4.378,1.696 -9.745,2.159 -13.069,-3.761c-1.312,-2.335 -11.734,1.028 -12.078,3.584c-0.67,4.964 -1.702,5.745 -6.602,3.778c-12.553,-5.041 -23.301,-2.313 -32.688,7.04c-1.617,0.011 -3.235,0.023 -4.854,0.035c-0.519,-6.295 -4.762,-7.428 -10.001,-7.28c-7.861,0.223 -12.497,4.316 -14.372,11.799l-0.612,-0.071l-0.548,0.277c-1.073,0.005 -2.145,0.009 -3.219,0.013l-0.053,-0.005c-12.784,-7.114 -25.797,-9.061 -39.449,-2.246c-2.327,1.162 -2.559,3.043 -3.551,4.833c-1.484,2.677 -4.335,2.864 -7.023,2.842c-3.937,-0.034 -1.397,-2.68 -1.875,-4.258c-1.123,-3.704 -4.347,-2.846 -6.118,-0.776c-3.594,4.201 -7.691,3.615 -11.426,1.369c-4.353,-2.616 -8.349,-0.38 -12.401,-0.084c-9.645,0.703 -19.517,-2.489 -28.984,1.857c-2.798,1.286 -6.186,1.035 -7.478,4.919c-1.742,5.239 -7.763,-0.575 -10.878,4.085c-1.722,2.578 -7.356,4.995 -9.464,-1.697c-0.09,-0.28 -0.972,-0.582 -1.348,-0.46c-8.151,2.656 -17.924,-1.111 -24.796,7.059c-4.797,5.701 -7.304,4.844 -11.383,-1.283c-1.801,-2.708 -4.223,-7.279 -7.549,-0.088c-1.714,3.704 -6.41,6.119 -11.478,4.842c-0.51,-0.129 -1.071,-0.222 -1.582,-0.153c-5.327,0.724 1.291,-11.761 -5.992,-6.329c-4.487,3.347 -7.812,1.539 -11.605,1.918c-4.427,0.439 -9.249,-0.753 -11.797,4.488c-0.211,0.433 -0.903,1.077 -1.138,0.989c-5.936,-2.19 -12.859,2.62 -17.23,0.177c-7.323,-4.091 -14.253,1.329 -20.939,-1.595c-0.428,-0.188 -1.461,0.501 -1.947,1.026c-3.963,4.282 -9.452,6.542 -15.052,5.105c-12.028,-3.086 -23.981,1.05 -36.099,0.091c-5.599,-0.442 -13.421,3.78 -17.639,6.98c-7.522,5.709 -16.535,-1.9 -22.544,5.151c-0.095,0.113 -1.533,-1.335 -2.372,-1.368c-4.502,-0.179 -10.338,-5.501 -12.401,4.007c-0.607,2.795 -5.212,0.943 -7.103,-1.026c-2.007,-2.091 -3.549,-4.288 -6.487,-5.535c-5.955,-2.527 -9.506,-1.862 -9.652,5.431l0.178,-0.133c-13.836,-1.115 -27.357,3.73 -41.222,2.172c-2.073,-0.233 -2.471,1.665 -3.352,2.903c-0.933,1.308 -2.039,3.223 -3.636,2.632c-8.157,-3.026 -16.909,2.909 -24.884,-1.811c-1.199,-0.71 -2.442,-0.951 -3.713,-0.045c-10.363,7.384 -22.085,6.863 -33.621,4.835c-7.268,-1.277 -12.8,3.655 -20.07,3.355c-7.988,-0.331 -15.524,0.609 -21.5,-6.222c-2.03,3.746 0.898,3.863 1.886,5.052c1.319,1.585 2.556,2.913 -0.392,4.141c-10.153,4.229 -20.326,7.341 -31.691,5.279c-4.349,-0.79 -9.078,-0.806 -13.465,2.758c-4.624,3.759 -9.229,6.838 -16.994,2.727c-4.603,-2.437 -12.761,-2.169 -20.113,0.074c-5.819,1.772 -13.009,5.472 -20.913,1.412c-6.028,-3.094 -13.829,1.183 -19.754,3.539c-8.247,3.278 -16.499,2.202 -24.621,3.733c-3.727,0.704 -7.696,0.12 -12.099,0.12c1.477,5.669 7.071,4.419 8.484,8.861c-0.753,2.242 -4.176,2.647 -5.409,1.397c-7.096,-7.191 -14.517,-2.917 -21.763,-1.076c-3.153,0.801 -4.501,-2.722 -7.935,-1.803c-14.261,3.817 -28.2,8.97 -43.191,9.921c-11.356,0.72 -20.533,8.159 -31.129,11.485c-5.834,1.831 -11.239,4.531 -17.578,2.448c-3.506,-1.151 -6.073,0.227 -5.755,4.111c0.432,5.3 -1.724,3.778 -5.493,3.705c-9.812,-0.194 -18.706,4.515 -27.881,7.548c-1.231,0.408 -2.321,1.991 -3.422,1.935c-16.13,-0.816 -28.914,8.116 -42.713,14.222c-4.146,1.834 -8.417,-1.918 -13.665,0.541c-16.403,7.688 -32.008,17.525 -49.664,22.088c-15.733,4.066 -29.809,12.524 -45.411,16.349c-12.503,3.065 -22.513,10.275 -33.327,16.244c-1.836,1.015 -3.586,0.598 -5.319,1.028c-5.215,1.294 -11.302,0.267 -15.092,5.543c-0.425,0.592 -1.413,1.32 -1.974,1.201c-15.061,-3.19 -23.033,10.02 -34.635,14.762c-4.725,1.932 -9.97,2.635 -15.02,3.7c-2.327,0.489 -5.526,-0.401 -7.013,0.872c-10.519,8.998 -28.363,7.713 -33.661,23.993c-0.889,2.725 -3.313,4.621 -6.033,4.362c-13.963,-1.328 -23.367,7.678 -33.52,14.707c-2.641,1.825 -4.071,4.456 -6.732,0.553c-1.682,-2.468 -4.081,-2.351 -6.384,-1.368c-2.924,1.248 -1.52,3.752 -1.761,6.041c-0.938,8.853 4.486,11.515 11.402,11.669c7.384,0.164 13.194,5.664 20.605,5.162c0.618,-0.04 1.315,0.812 1.945,1.288c1.401,1.058 0.131,2.086 -0.473,2.193c-7.662,1.359 1.818,13.112 -6.95,12.351c-5.975,-0.517 -9.704,1.423 -13.329,5.089c-1.889,1.912 -4.729,3.484 -6.3,1.829c-5.249,-5.527 -9.722,-2.86 -14.982,-0.221c-2.348,1.178 -5.797,0.503 -8.488,-1.01c-6.266,-3.523 -13.562,-2.305 -20.237,-4.517c-5.947,-1.972 -12.166,-7.105 -12.921,-13.754c-0.586,-5.17 2.722,-12.412 -6.878,-12.85c-0.323,-0.014 -0.958,-1.864 -0.768,-2.707c0.381,-1.699 2.064,-1.671 3.275,-1.292c5.015,1.566 7.187,-1.045 8.984,-5.247c3.208,-7.508 11.678,-9.941 17.51,-11.908c8.962,-3.026 16.053,-10.846 25.187,-11.118c9.896,-0.292 14.047,-6.014 18.739,-12.728c2.769,-3.965 6.721,-1.268 9.834,-0.029c4.338,1.725 8.143,3.919 9.136,-3.351c0.374,-2.719 4.43,-3.822 5.399,-3.806c10.615,0.178 16.866,-13.897 29.046,-8.563c3.689,1.617 5.957,-1.277 6.168,-5.103c0.345,-6.25 3.027,-8.941 9.225,-6.19c2.45,1.088 3.321,0.338 5.015,-1.725c3.197,-3.892 6.791,-8.909 12.972,-3.786c1.197,0.994 2.836,0.749 3.511,-0.488c4.13,-7.591 10.676,-10.388 19.001,-10.623c1.671,-0.048 3.267,-2.447 4.92,-3.731c1.248,-0.968 3.011,-2.977 3.729,-2.662c7.427,3.265 13.973,-3.077 21.266,-1.64c3.72,0.732 6.466,-2.659 9.153,-4.707c2.813,-2.141 4.624,-3.273 8.261,-1.221c4.667,2.632 10.098,-0.46 10.264,-5.805c0.146,-4.699 2.944,-4.03 5.808,-4.444c5.065,-0.732 10.4,-0.31 13.31,-6.542c1.547,-3.315 5.41,-2.46 6.724,1.016c2.839,7.517 7.549,4.258 10.254,1.138c3.152,-3.636 5.524,-4.89 9.938,-2.777c2.011,0.96 4.346,-0.512 5.548,-2.3c1.942,-2.885 -1.718,-2.412 -2.575,-3.67c-2.714,-3.986 -1.179,-6.182 3.149,-6.131c4.278,0.053 7.059,-2.386 10.559,-4.062c9.625,-4.606 19.999,-8.62 30.893,-3.846c3.239,1.42 5.896,1.388 7.9,-1.023c3.5,-4.205 8.555,-6.735 12.511,-10.214c3.641,-3.204 10.686,-5.073 16.361,-7.163c5.404,-1.992 10.47,-4.888 16.74,-4.805c3.027,0.04 1.816,-3.903 1.827,-6.549c0.019,-4.152 -2.514,-4.514 -5.127,-4.255c-6.622,0.657 -12.903,0.6 -19.275,-2.191c-2.302,-1.008 -4.979,-1.09 -6.77,-3.292c-4.49,-5.513 -10.667,-6.822 -17.495,-6.74c4.001,1.985 11.153,2.547 9.762,7.892c-1.607,6.174 -8.323,1.291 -12.602,2.333c-7.269,1.773 -15.308,1.437 -21.453,6.326c-1.939,1.543 -3.123,1.018 -4.851,0.889c-9.605,-0.716 -19.209,-1.418 -28.539,2.025c-1.957,0.722 -3.891,1.144 -6.178,0.406c-6.982,-2.258 -11.969,-0.815 -17.382,4.283c-0.62,0.583 -2.206,1.044 -2.736,0.679c-4.653,-3.202 -9.922,-0.778 -14.813,-1.777c-2.835,-0.58 -6.422,-0.559 -7.927,2.308c-1.65,3.145 3.946,2.941 3.717,6.351c-7.698,4.189 -12.303,-2.408 -15.765,-6.492c-4.272,-5.039 -7.486,-4.44 -12.068,-1.935c-1.598,0.874 -3.479,1.991 -5.143,1.863c-16.166,-1.241 -31.235,5.078 -46.981,6.614c-1.222,0.12 -2.544,-0.977 -3.944,0.547c5.453,1.401 10.561,3.318 16,0.292c1.25,-0.695 3.363,-0.885 4.632,-0.316c4.767,2.138 9.218,2.009 14.24,0.446c6.577,-2.048 13.395,-3.697 20.205,0.242c2.214,1.282 4.283,-1.195 6.398,-2.192c1.672,-0.788 4.585,-1.661 5.44,1.091c0.86,2.772 -1.745,3.539 -3.832,3.788c-11.417,1.373 -22.839,2.712 -34.279,3.869c-8.869,0.897 -17.68,1.274 -26.514,3.435c-13.471,3.296 -27.242,4.293 -40.446,-2.469c-6.339,-3.246 -11.155,0.898 -15.427,4.921c-4.985,4.695 -9.861,7.54 -16.591,2.988c-3.264,-2.208 -7.039,-1.406 -9.102,1.97c-3.115,5.093 -7.927,5.776 -13.021,6.111c-10.406,0.686 -20.499,1.958 -31.311,0.508c-10.352,-1.39 -22.324,-3.353 -32.719,3.814c-2.474,1.704 -7.979,-1.218 -10.737,0.355c-4.878,2.785 -12.384,-3.478 -15.604,5.299c-0.79,2.147 -6.377,-0.77 -9.629,-0.679c-4.626,0.13 -6.226,-1.155 -6.018,-5.779c0.104,-2.354 -1.921,-3.051 -3.987,-1.691c-3.045,2.004 -7.346,1.553 -9.62,5.169c-0.627,0.995 -2.642,2.288 -3.21,1.975c-10.097,-5.575 -19.305,3.054 -29.104,1.683c-3.655,-0.511 -7.372,0.531 -11.109,-0.422c-4.219,-1.074 -7.109,0.828 -5.838,5.255c2.052,7.152 -5.826,2.089 -6.671,5.781c-0.151,0.647 -3.248,0.313 -3.499,-1.758c-0.425,-3.542 2.495,-3.353 4.774,-3.916c1.72,-0.425 2.869,-1.635 2.276,-3.508c-0.475,-1.51 -2.19,-2.018 -3.265,-1.312c-4.074,2.675 -12.417,-3.537 -13.184,6.711c-0.179,2.399 -5.003,2.137 -7.944,1.884c-7.479,-0.641 -13.551,-0.832 -20.288,5.816c-5.747,5.677 -16.369,8.471 -24.902,8.613c-6.673,0.112 -12.942,4.16 -19.893,1.584c-2.29,-0.849 -4.894,-0.115 -6.794,-2.768c-1.808,-2.528 -6.253,-2.319 -7.128,-0.767c-2.919,5.181 -9.291,3.502 -12.871,7.822c-2.872,3.468 -7.868,1.711 -11.594,-1.076c-6.31,-4.726 -16.887,-3.853 -21.311,2.207c-2.479,3.398 -4.799,2.834 -7.392,0.964c-6.373,-4.598 -11.477,-2.426 -15.758,2.965c-3.811,4.796 -7.384,7.032 -13.349,2.691c-4.229,-3.077 -9.209,0.16 -13.825,0.767c-0.513,0.069 -1.401,1.955 -1.133,2.569c3.548,8.106 -3.145,6.452 -5.926,5.183c-9.124,-4.165 -17.817,2.627 -26.878,0.35c-1.625,-0.408 -4.767,3.751 -6.666,6.218c-4.31,5.602 -10.246,5.868 -14.781,2.332c-5.096,-3.971 -8.346,-1.812 -11.766,1.02c-4.972,4.112 -10.24,6.479 -16.772,5.277c-0.77,-0.14 -1.625,-0.343 -2.346,-0.155c-5.263,1.381 -10.846,7.284 -14.256,6.21c-5.313,-1.672 -10.331,-3.242 -15.86,-3.004c-2.151,0.093 -4.47,0.704 -6.153,-0.8c-6.991,-6.246 -12.19,-0.074 -17.916,2.405c-1.014,0.438 -1.901,1.335 -1.354,2.49c2.92,6.161 -1.817,3.345 -4.076,3.582c-3.636,0.38 -11.096,-4.446 -7.724,5.742c0.639,1.934 -1.696,2.329 -3.34,2.088c-10.566,-1.544 -19.707,5.181 -29.745,5.344c-7.795,0.125 -14.435,6.302 -22.503,3.419c-1.175,-0.419 -2.305,0.316 -2.353,1.451c-0.385,9.152 -8.501,6.292 -13.251,8.682c-7.91,3.979 -17.635,0.222 -25.164,6.116c-2.035,1.594 -4.889,2.163 -6.085,4.825c-2.247,5.004 -6.832,6.698 -11.589,7.269c-4.5,0.54 -6.359,3.503 -8.072,6.773c-1.295,2.476 -1.057,5.225 2.499,4.937c6.086,-0.495 7.582,3.859 6.285,7.509c-3.128,8.809 -0.084,18.385 -4.687,27.039c-3.779,7.107 -14.27,12.493 -22.046,12.08c-7.837,-0.419 -15.565,-0.571 -23.374,4.93c-6.935,4.889 -15.62,10.318 -25.593,7.969c-3.81,-0.897 -6.111,0.73 -9.169,2.805c-7.897,5.357 -15.025,12.212 -26.547,10.006c-5.406,-1.035 -10.454,5.641 -16.677,6.411c-0.996,0.121 -2.048,1.459 -2.845,1.271c-12.82,-3.055 -24.047,6.314 -36.681,4.62c-2.588,-0.347 -5.363,-0.601 -6.689,2.754c-0.296,0.746 -1.956,1.753 -2.413,1.518c-11.126,-5.698 -14.541,5.714 -21.409,9.462c-12.709,6.938 -23.716,17.005 -39.779,17.398c-10.156,0.248 -20.219,4.025 -30.563,4.851c-1.962,0.158 -3.385,1.17 -4.43,2.957c-3.94,6.735 -10.614,6.506 -17.061,6.193c-5.562,-0.27 -11.068,1.442 -16.769,-1.293c-4.462,-2.145 -5.824,3.652 -7.931,6.03c-5.854,6.612 -22.904,12.335 -30.181,8.146c-4.54,-2.614 -6.671,-1.699 -8.845,2.075c-1.874,3.257 -3.715,5.499 -6.755,1.032c-0.406,-0.597 -1.463,-1.321 -1.997,-1.174c-7.203,1.967 -14.398,3.978 -21.494,6.29c-0.865,0.28 -0.946,2.393 -0.136,3.664c0.85,1.334 2.197,1.507 3.503,1.062c2.776,-0.944 5.465,-2.053 8.487,-0.944c1.779,0.652 5.074,-1.077 5.148,1.99c0.072,3.065 -3.427,4.964 -5.637,4.23c-6.438,-2.138 -10.044,0.243 -14.062,5.169c-3.675,4.505 -8.176,-0.921 -12.396,-1.268c-1.614,-0.132 -3.194,-2.418 -4.391,0.419c-3.975,9.42 -11.02,6.387 -17.337,3.833c-3.76,-1.519 -7.323,-2.131 -10.716,-0.544c-2.547,1.191 -6.398,3.021 -3.156,7.133c1.55,1.965 0.931,3.329 -0.51,4.814c-1.723,1.773 -3.729,2.028 -5.797,0.873c-1.936,-1.082 -3.535,-3.798 -5.934,-0.646c-4.57,6.002 -9.484,3 -13.899,0.05c-2.498,-1.67 -4.967,-4.877 -6.791,-0.632c-1.454,3.386 -11.472,3.683 -4.174,10.413c2.346,2.162 2.017,5.605 -0.59,5.383c-6.836,-0.582 -9.882,5.517 -15.268,7.152c-8.456,2.568 -14.884,-3.682 -22.228,-5.575c-6.441,-1.657 -6.141,-0.068 -5.308,4.549c-0.614,0.556 -1.229,1.112 -1.843,1.67c-3.606,0.154 -7.273,-2.183 -10.825,0.296c-1.095,0.765 -2.405,1.457 -2.357,2.969c0.056,1.76 1.512,1.813 2.864,1.955c2.508,0.265 5.319,0.93 3.829,4.171c-1.024,2.23 -3.346,2.08 -6.134,1.463c-6.656,-1.471 -12.853,0.064 -16.788,6.398c-1.905,3.067 -4.114,2.09 -6.874,1.409c-4.763,-1.181 -10.59,-5.161 -11.593,4.907c-0.421,4.202 -6.614,4.537 -9.472,2.635c-8.903,-5.924 -15.181,0.39 -19.754,5.185c-5.476,5.744 -11.618,9.126 -18.667,10.842c-6.104,1.485 -11.89,4.501 -19.147,1.575c-7.098,-2.863 -10.928,5.24 -15.43,9.084c-4.133,3.524 -7.598,5.97 -13.211,5.279c-10.158,-1.248 -18.183,4.192 -26.281,9.168c-1.565,0.96 -3.501,3.099 -4.619,2.733c-10.291,-3.382 -19.027,3.949 -28.769,3.818c-2.106,-0.027 -5.427,-0.246 -5.212,2.196c0.649,7.331 -3.858,6.896 -8.576,6.597c-4.739,-0.3 -7.839,5.943 -13.366,3.176c-1.088,-0.545 -0.383,1.651 -0.676,2.532c-2.68,8.047 -12.616,11.277 -20.478,8.299c-4.693,-1.775 -11.669,-6.592 -15.035,3.002c-1.355,3.864 -5.332,4.584 -7.804,2.233c-5.429,-5.159 -8.736,-0.884 -10.812,2.534c-5.351,8.808 -13.935,9.812 -22.531,10.178c-10.201,0.438 -18.186,5.228 -25.971,10.922c-0.414,0.306 -0.895,0.67 -1.079,1.118c-2.803,6.827 -2.81,6.866 -9.361,3.799c-3.319,-1.555 -5.731,-1.519 -6.017,2.947c-0.138,2.157 -1.755,4.48 -3.269,3.508c-9.997,-6.419 -16.313,5.231 -25.282,4.796c-6.149,-0.299 -11.528,3.417 -17.012,7.157c-4.254,2.904 -9.35,3.942 -11.1,9.692c-0.198,0.652 -1.87,1.295 -2.798,1.216c-13.533,-1.123 -24.819,6.101 -36.701,10.475c-7,2.578 -11.945,2.64 -17.047,-2.597c-1.913,-1.964 -4.193,-3.414 -7.038,-0.513c1.895,1.701 6.794,0.018 5.739,4.616c-0.957,4.168 -3.857,7.459 -7.75,8.349c-3.916,0.895 -6.677,2.92 -9.527,5.3c-1.191,0.995 -3.412,2.662 -3.896,2.306c-8.268,-6.105 -8.438,0.692 -10.845,5.913c-2.37,5.14 -7.743,7.146 -12.806,3.951c-4.113,-2.594 -6.118,-0.65 -8.971,1.501c-6.556,4.942 -13.218,9.956 -22.112,9.292c-6.303,-0.47 -9.052,4.656 -12.688,8.083c-1.784,1.681 -3.197,3.677 -5.7,3.794c-3.89,0.184 -8.124,-0.782 -9.015,4.97c-0.08,0.523 -2.495,1.295 -3.504,0.964c-7.476,-2.445 -13.196,1.028 -19.16,4.814c-8.633,5.48 -19.586,5.228 -28.226,10.954c-6.861,4.551 -16.163,5.177 -20.83,13.331c-2.365,4.133 -6.423,2.059 -9.714,1.65c-4.899,-0.608 -9.03,-0.748 -10.526,5.359c-0.855,3.492 -3.238,3.958 -6.812,3.169c-5.069,-1.12 -10.988,-1.958 -9.083,6.76c0.501,2.288 -0.525,2.849 -2.407,2.925c-3.444,0.139 -6.861,0.151 -10.085,1.837c-1.572,0.823 -3.551,0.236 -3.506,-1.814c0.185,-8.679 -4.077,-3.529 -6.534,-1.976c-2.496,1.581 -4.751,3.352 -7.837,3.593c-2.051,0.163 -4.69,-0.107 -4.548,3.064c0.138,3.054 2.593,3.498 5.057,4.043c2.478,0.549 7.498,-2.188 6.983,1.573c-0.598,4.373 -5.669,3.267 -9.362,2.161c-4.758,-1.421 -10.001,-0.783 -14.423,-3.855c-2.246,-1.558 -3.204,-0.264 -4.33,2.349c-4.051,9.411 -8.29,11.319 -17.914,8.147c-5.887,-1.941 -10.005,0.337 -13.13,4.622c-2.658,3.644 -4.68,7.539 -9.898,7.9c-0.884,0.061 -2.033,1.026 -2.485,1.879c-5.167,9.724 -16.157,11.183 -24.084,16.974c-3.765,2.749 -8.447,3.297 -13.056,4.328c-5.049,1.127 -11.06,3.388 -15.543,7.313c-3.032,2.655 -6.214,4.702 -10.528,5.115c-5.17,0.494 -12.348,-1.795 -12.803,7.28c-0.011,0.196 -0.361,0.546 -0.544,0.54c-12.551,-0.468 -18.59,14.493 -32.543,12.856c-6.828,-0.802 -16.094,0.158 -21.207,8.493c-1.431,2.334 -5.436,3.061 -8.218,4.598c-5.917,3.27 -11.627,6.977 -17.744,9.81c-13.941,6.457 -23.368,0.653 -24.399,-14.552c-0.158,-2.354 -1.318,-4.684 -1.25,-7.001c0.184,-6.181 2.305,-9.734 9.716,-10.851c12.991,-1.956 25.666,-5.253 37.65,-11.737c7.042,-3.812 16.344,-3.211 24.367,-5.514c7.534,-2.16 15.773,-4.21 17.854,-13.747c0.503,-2.311 1.978,-2.867 4.055,-2.858c13.134,0.061 23.946,-7.57 36.054,-10.844c8.338,-2.253 14.762,-8.505 23.651,-9.838c4.779,-0.716 9.836,-2.775 13.296,-7.685c2.923,-4.149 8.773,-4.599 13.432,-6.334c8.716,-3.246 16.226,-10.248 26.548,-8.713c0.895,0.132 2.512,-0.456 2.821,-1.145c5.539,-12.325 19.364,-7.195 27.961,-13.191c1.635,-1.142 4.389,-0.638 5.789,-3.165c2.375,-4.282 5.904,-6.719 11.132,-5.49c0.503,0.117 1.384,0.219 1.545,-0.03c5.554,-8.481 15.824,-6.641 23.565,-10.406c6.546,-3.184 12.952,-8.422 21.106,-7.487c6.064,0.696 10.346,-0.922 11.784,-7.511c0.537,-2.468 2.445,-4.683 4.931,-4.674c10.644,0.034 18.419,-7.366 27.862,-10.454c5.339,-1.747 10.956,0.381 16.216,-2.955c4.801,-3.043 8.318,-7.668 14.988,-8.974c4.304,-0.844 8.705,-3.885 13.85,-4.167c2.586,-0.142 5.131,-0.514 6.825,-4.083c2.503,-5.281 9.255,-2.959 13.788,-5.351c4.363,-2.302 10.368,-1.223 12.301,-8.038c0.526,-1.854 4.933,-3.764 7.501,-3.692c15.105,0.437 25.812,-10.82 39.395,-14.333c3.318,-0.856 6.465,-2.224 9.983,-2.271c1.82,-0.024 4.259,0.477 5.239,-1.234c4.956,-8.657 15.523,-8.497 22.155,-14.432c1.801,-1.464 3.6,-2.928 5.402,-4.392c0.733,-0.16 1.468,-0.318 2.202,-0.478c5.14,0.895 8.436,-3.354 12.812,-4.596c6.102,0.943 12.173,0.137 18.253,-0.301c0.529,-0.04 1.325,0.04 1.539,-0.26c5.439,-7.629 15.321,-8.13 21.676,-13.063c6.592,-5.116 13.986,-9.985 20.73,-9.888c10.32,0.149 16.255,-8.769 25.451,-8.809c9.34,-0.04 16.214,-7.629 25.439,-7.597c0.265,0.002 0.62,0.045 0.78,-0.099c9.984,-8.976 24.055,-7.862 35.193,-14.383c8.829,-5.168 17.392,-10.922 26.414,-15.517c6.48,-3.299 14.823,-3.057 22.376,-4.087c3.316,-0.452 6.088,-1.278 8.368,-3.938c1.138,-1.328 2.967,-2.52 4.661,-2.843c13.372,-2.549 24.611,-11.066 37.424,-14.127c8.877,-2.121 17.303,-5.918 24.516,-9.775c13.105,-7.01 27.526,-8.852 41.007,-13.265c11.391,-3.729 21.695,-11.722 34.893,-11.212c4.977,0.192 11.73,-4.604 14.571,-7.698c7.159,-7.79 14.444,-3.202 21.417,-3.197c5.607,0.003 11.32,3.505 13.213,-5.496c0.406,-1.929 3.893,-4.407 6.095,-4.549c8.194,-0.529 14.829,-6.673 23.26,-6.013c1.213,0.096 3.03,-0.34 3.668,-1.2c5.197,-6.991 9.81,-4.334 14.748,0.366c2.479,2.362 6.598,3.246 8.664,0.81c3.019,-3.559 -1.572,-4.508 -3.679,-6.068c-1.06,-0.783 -2.391,-1.422 -1.888,-3.035c0.552,-1.769 2.385,-2.704 3.74,-2.394c5.132,1.178 8.613,-1.797 12.686,-3.918c3.025,-1.574 6.183,-2.953 10.455,-1.916c5.175,1.258 10.061,-4.446 11.896,-7.15c2.676,-3.94 5.918,-4.821 8.792,-4.841c10.398,-0.069 19.527,-5.375 29.721,-6.761c4.654,-0.633 14.074,-0.75 16.802,-8.845c0.082,-0.239 0.36,-0.639 0.459,-0.613c9.263,2.293 15.902,-10.726 25.61,-4.522c2.417,1.544 2.859,0.184 4.419,-0.785c4.599,-2.848 9.478,-5.24 14.209,-7.876c1.317,-0.733 2.48,-0.361 3.8,-0.08c3.432,0.736 11.773,6.502 4.373,-4.309c-2.157,-3.154 1.594,-4.582 3.595,-3.691c4.307,1.914 8.146,0.752 11.378,-1.319c7.596,-4.867 16.298,-7.211 24.413,-10.654c8.568,-3.634 17.865,-6.462 27.905,-5.814c5.319,0.343 13.906,4.154 15.003,-6.715c0.059,-0.596 1.873,-1.635 2.613,-1.446c7.507,1.899 14.058,-3.169 21.638,-2.576c6.111,0.479 10.667,-5.575 16.229,-8.172c2.377,-1.109 4.283,-2.93 7.205,-2.599c2.934,0.333 6.067,0.723 6.343,-3.711c0.026,-0.38 0.707,-1.031 1.094,-1.037c13.128,-0.21 21.87,-14.404 36.113,-11.238c4.145,0.923 8.722,-3.13 12.81,0.841c0.186,0.182 1.691,-0.403 1.866,-0.888c3.146,-8.728 12.996,-7.915 18.597,-13.132c1.47,-1.368 3.174,-0.879 5.151,-0.375c6.172,1.568 14.94,-2.626 18.439,-8.357c0.954,-1.562 2.52,-1.926 4.078,-2.132c5.11,-0.673 10.672,0.648 14.883,-3.798c0.823,-0.871 1.832,0.158 2.687,0.814c4.368,3.354 8.531,7.123 11.822,-1.492c0.964,-2.526 5.463,0.219 7.924,-2.274c2.599,-2.632 5.831,-4.635 7.715,-7.97c2.317,-1.471 4.64,-2.939 6.962,-4.408c5.77,1.485 8.427,-3.326 12.139,-6.002c3.365,-0.497 3.909,-2.56 3.014,-5.424c-1.001,-8.522 -0.601,-17.252 -3.812,-25.441c0.272,-2.346 1.421,-4.144 3.395,-5.426c2.471,0.436 4.174,-0.422 4.914,-2.907c2.553,-2.514 3.868,-7.021 8.907,-5.522c6.941,5.263 4.354,-3.026 6.504,-4.574l0.11,-0.021c2.941,1.788 5.351,2.608 8.939,0.173c5.185,-3.52 12.404,-3.077 17.018,-8.465c2.37,-2.766 6,1.287 8.993,-0.327c1.132,-0.028 2.263,-0.053 3.395,-0.079c4.043,-2.712 11.864,1.723 12.85,-6.784c1.16,-0.067 2.322,-0.133 3.484,-0.2c3.367,-5.797 9.335,-7.242 15.1,-9.025l0.633,-0.01c4.28,0.313 9.12,3.877 12.313,-2.121c2.206,0.226 3.911,-0.629 5.185,-2.41c2.125,-0.673 4.249,-1.347 6.377,-2.02c1.056,-0.096 2.113,-0.193 3.167,-0.293c9.326,-1.2 18.719,-2.212 25.988,-9.213l0.73,0.092l0.631,-0.379c1.477,0.569 2.941,0.635 4.383,-0.113c3.318,0.176 6.674,0.983 9.877,-0.628c8.88,3.387 14.881,-4.493 22.569,-5.767c2.864,-1.36 6.578,4.378 8.953,-1.072c0.799,-0.663 1.598,-1.327 2.396,-1.99c1.581,-0.016 3.16,-0.033 4.74,-0.049c4.578,0.096 9.15,0.183 10.867,-5.438c1.064,-0.147 2.127,-0.292 3.191,-0.439c7.05,2.549 13.4,0.703 19.443,-3.09c2.613,-0.282 5.228,-0.565 7.843,-0.848c1.756,0.522 3.922,1.98 5.204,1.419c9.61,-4.208 19.605,-3.532 29.657,-3.192c2.423,0.08 2.285,-2.432 2.32,-4.285c6.908,-0.629 12.751,-5.84 20.077,-4.655c6.178,1.322 11.493,0.69 14.043,-6.203c1.376,0.833 2.806,0.855 4.27,0.235c5.025,3.217 8.562,0.102 12.14,-2.847c7.061,-0.364 14.122,-0.73 21.183,-1.096c6.459,-2.949 14.703,1.68 20.332,-4.785c3.356,-0.505 6.709,-1.012 10.065,-1.517c4.562,-1.208 9.54,0.476 13.915,-2.014c4.401,1.714 8.772,2.884 12.894,-0.687c5.116,3.718 11.263,-2.49 16.398,1.642c0.146,0.116 1.64,-0.793 1.715,-1.333c0.764,-5.585 6.237,-4.774 9.395,-7.066c2.955,-0.51 5.912,-1.018 8.865,-1.528c1.175,2.244 3.285,2.83 5.359,2.145c7.724,-2.554 15.485,-4.264 23.718,-3.283c2.576,0.308 4.473,-1.256 5.303,-3.837c3.717,-0.51 7.437,-1.02 11.156,-1.53c4.921,2.823 9.098,-0.746 13.594,-1.581c1.306,-0.033 2.61,-0.067 3.918,-0.1c2.432,0.877 3.709,0.056 3.76,-2.564c0.74,-0.19 1.479,-0.382 2.219,-0.572c8.689,1.716 17.267,3.228 26.062,-0.114c6.109,-2.32 12.013,-6.624 19.366,-2.17c2.469,1.496 4.507,-1.598 4.51,-4.7c7.662,0.493 15.03,-1.343 22.441,-2.829c2.569,-1.229 5.091,-0.373 7.733,-0.133c6.198,0.563 12.741,2.075 17.962,-3.203c9.487,-0.182 19.825,1.9 28.193,-1.251c6.895,-2.599 14.185,-2.727 20.693,-5.773c1.555,-0.729 2.982,-1.44 4.465,-0.617c9.006,4.996 17.662,0.705 26.309,-1.112c4.338,-0.913 8.605,-0.649 12.618,0.155c4.609,0.923 9.184,4.55 11.215,-3.109c0.118,-0.446 1.24,-0.924 1.871,-0.892c15.674,0.79 30.546,-4.155 45.811,-6.064c6.863,-0.856 13.954,-1.515 20.958,-1.986c16.5,-1.109 32.824,-4.811 49.23,-5.19c16.2,-0.374 32.277,-2.637 47.852,-5.322c10.353,-1.785 21.442,0.903 29.96,-2.659c10.96,-4.582 21.847,0.864 30.973,-2.893c12.656,-5.214 25.559,-2.644 38.065,-5.345c3.002,-0.647 6.406,-0.81 9.196,1.437c0.41,0.331 1.25,0.85 1.321,0.772c6.051,-6.757 9.453,0.144 13.978,2.409c2.933,1.47 5.845,1.491 6.997,-3.353c1.513,-6.355 10.336,-11.238 16.213,-8.35c6.348,3.119 13.888,-2.021 19.581,3.967c1.216,1.28 3.144,-0.682 3.273,-3.036c0.317,-5.737 1.392,-7.376 8.933,-7.034c8.947,0.406 18.49,0.901 27.605,-0.582c14.8,-2.409 30.256,1.368 44.337,-2.142c16.447,-4.098 33.532,-2.427 49.564,-7.909c3.213,-1.098 6.708,-1.372 10.074,-2.025c2.206,3.591 4.397,7.256 8.514,1.798c1.635,-0.406 3.268,-0.814 4.905,-1.22c7.302,2.778 5.618,-5.918 9.534,-7.468l7.786,-1.177c1.137,1.408 -1.203,5.123 2.306,4.6c3.63,-0.539 1.93,-4.155 2.393,-6.486c1.087,-0.386 2.172,-0.772 3.26,-1.157c0.958,0.387 2.158,0.531 2.834,1.202c5.989,5.942 13.422,5.95 19.489,-0.088c1.076,-0.302 2.153,-0.604 3.227,-0.908c9.027,2.674 17.077,1.079 24.44,-4.961c3.112,-2.552 8.797,-4.336 10.977,-2.921c6.137,3.984 11.551,0.586 16.39,-0.79c5.314,-1.51 11.36,0.117 15.974,-3.514c7.878,-6.197 16.486,-9.086 26.712,-8.779c7.125,0.215 15.377,2.343 20.787,-5.418c0.581,-0.833 2.485,-1.253 3.66,-1.082c8.453,1.224 15.177,-3.742 21.309,-7.659c4.732,-3.024 7.29,-2.461 11.108,-0.181c2.464,1.472 5.952,4.568 7.828,2.653c4.458,-4.547 9.983,-3.271 14.953,-3.804c0.288,-3.242 -5.143,-5.349 -2.805,-5.863c6.521,-1.437 1.857,-6.905 4.539,-9.234" style="fill:#fff;fill-rule:nonzero;"/><path d="M277.057,270.329c-2.307,7.254 -4.808,13.978 -12.457,17.977c-5.853,3.06 -8.659,10.751 -15.123,12.984c-10.144,3.505 -14.579,13.457 -22.966,18.699c-4.648,2.904 -9.706,5.126 -13.568,9.198c-0.521,0.552 -1.501,1.044 -2.215,0.98c-9.231,-0.833 -14.966,5.88 -21.861,10.054c-1.803,1.092 -3.673,0.056 -5.387,0.437c-2.799,0.62 -5.601,1.972 -7.308,4.176c-7.014,9.065 -17.409,9.53 -27.334,11.114c-4.375,0.7 -8.767,-2.172 -13.274,-0.342c-0.407,0.166 -1.234,-0.214 -1.63,-0.59c-6.14,-5.785 -7.246,-18.525 -2.185,-24.67l0.221,-0.168c5.733,-0.4 10.289,-4.143 15.183,-6.388c2.375,-1.09 8.158,-2.306 7.726,-7.712c0.981,-0.895 1.964,-1.791 2.946,-2.686c3.124,-0.895 4.989,-3.111 6.253,-5.959l-0.001,0.002c1.114,-0.465 2.223,-0.946 3.343,-1.395c6.44,-2.585 14.257,-2.497 18.422,-9.495c3.011,-1.776 4.879,-4.599 6.765,-7.405c2.37,0.441 4.437,0.296 5.067,-2.626c2.4,-0.905 4.799,-1.809 7.2,-2.715c2.148,-0.231 3.225,-1.882 4.436,-3.352l0.35,0.082l0.163,-0.32c2.537,-0.264 4.242,-2.158 6.357,-3.249c5.856,-3.787 11.71,-7.576 17.564,-11.361c0.859,-0.554 1.691,-1.524 2.585,-1.583c9.672,-0.646 7.455,-7.583 6.592,-13.168c-0.362,-2.347 1.106,-4.333 0.235,-6.492l1.157,-2.513l0.077,-0.061c4.202,-2.053 6.753,-5.237 8.87,-9.584c2.401,-4.924 0.256,-12.602 8.073,-14.613c0.393,-0.101 0.35,-1.886 0.518,-2.885c0.262,-1.569 1.202,-2.543 2.677,-3.073c5.727,-2.057 9.358,-6.515 12.832,-11.17c1.097,-1.471 2.593,-4.199 3.461,-4.033c5.889,1.132 7.097,-4.745 10.831,-6.661c2.364,-1.212 0.988,-5.203 4.002,-5.674c4.445,-0.697 6.943,-3.642 9.171,-7.069c2.167,0.078 4.334,0.158 6.501,0.238c0.369,1.02 1.007,1.739 2.135,1.912c0,-0 -0.118,-0.111 -0.116,-0.111c1.747,4.56 -1.239,7.8 -4.466,8.695c-6.968,1.929 -7.79,6.69 -7.027,12.255c0.791,5.77 -2.201,7.644 -7.01,8.205c-1.621,0.189 -3.302,-0.129 -4.923,0.068c-4.083,0.497 -6.399,3.787 -8.368,6.658c-1.464,2.13 1.341,3.22 3.264,4.011c0.37,0.152 0.695,1.469 0.62,1.511c-4.029,2.293 -1.418,8.515 -6.058,10.334c-4.909,1.923 -5.499,7.552 -9.201,10.505c-0.936,0.747 -0.82,1.901 -0.067,2.744c0.7,0.784 1.691,1.254 2.776,0.777c1.538,-0.677 2.612,-1.822 3.606,-3.222c4.162,-5.865 9.738,-9.762 16.575,-12.146c4.805,-1.677 10.45,-3.002 13.742,-6.4c3.562,-3.674 6.991,-4.795 11.6,-5.488c3.235,-0.488 9.037,-0.531 9.318,-2.847c0.9,-7.395 6.842,-9.217 11.282,-12.816c-0,0 0.217,-0.2 0.217,-0.201c1.253,-1.432 3.134,-1.782 4.648,-2.713c4.847,-2.977 11.208,-3.444 14.645,-8.755l-0.084,0.072c1.586,-0.892 3.171,-1.783 4.758,-2.674c4.311,-1.494 8.378,-1.774 11.6,-7.01c2.065,-3.356 7.958,-7.011 13.061,-8.816c8.978,-3.174 16.622,-8.318 23.363,-14.882c2.093,-2.038 4.913,-2.051 7.314,-2.885c6.085,-2.116 11.295,-5.129 15.287,-10.205c2.513,-3.192 6.938,-2.338 9.844,-4.441c5.726,-4.146 11.221,-8.549 17.595,-11.781c4.016,-2.036 6.706,-6.812 12.222,-5.671c0.362,0.074 0.906,-0.051 1.17,-0.295c8.288,-7.651 19.174,-11.377 27.874,-18.195c5.692,-4.46 12.785,-5.554 18.281,-9.759c6.051,-4.627 13.256,-7.444 19.12,-12.157c6.465,-5.196 13.884,-7.83 21.541,-10.184c1.127,-0.346 2.867,0.188 3.342,-1.044c2.095,-5.431 7.496,-6.962 11.45,-10.21c2.549,-2.093 4.769,-4.023 8.392,-4.585c4.148,-0.646 7.557,-4.358 10.194,-6.957c4.406,-4.341 10.991,-5.241 14.413,-10.502c4.384,-3.087 9.469,-5.279 12.631,-9.924c0.871,0.142 1.785,0.441 2.343,-0.614c5.702,0.053 9.466,-3.568 13.216,-7.102c1.035,-0.977 1.729,-2.453 3.338,-2.431c8.492,0.126 14.233,-5.661 20.84,-9.588c0.412,0.013 0.653,-0.184 0.716,-0.594c2.667,-2.262 5.622,-4.239 9.063,-4.702c2.481,-0.336 3.66,-1.425 4.343,-3.549l3.914,-1.507c6.348,-1.101 11.643,-4.144 16.088,-8.75c7.289,0.553 11.373,-5.321 16.956,-8.247c6.543,-3.431 12.984,-8.626 21.355,-4.17c5.356,2.85 8.119,15.04 4.952,20.16c-3.611,5.834 -9.713,7.517 -14.694,11.1c-9.942,7.151 -21.663,8.322 -32.371,12.657c-1.09,0.441 -2.412,1.015 -2.983,1.93c-3.764,6.031 -9.966,8.441 -16.1,10.654c-6.074,2.19 -11.46,5.433 -16.739,8.987c-1.804,0.008 -4.218,-0.51 -4.753,1.678c-0.949,3.889 -3.382,5.129 -6.973,5.521c-1.14,0.124 -1.795,1.56 -1.977,2.857c-1.183,0.601 -2.365,1.202 -3.548,1.803c-3.428,2.073 -7.913,-2.372 -10.955,1.672c-3.375,4.488 -9.06,6.177 -12.498,10.553c-1.499,-0.294 -2.8,-0.043 -3.682,1.352c-2.286,-0.011 -4.814,-1.342 -6.623,1.224c-0.43,-0.081 -0.747,0.071 -0.946,0.462c-5.693,2.54 -11.075,5.046 -15.905,9.614c-5.99,5.667 -14.345,8.502 -21.525,12.854c-4.374,2.65 -8.601,6.098 -13.745,7.386c-4.668,1.17 -8.146,3.641 -10.403,7.866l-0.087,0.093c-2.112,0.986 -3.528,2.735 -6.071,3.532c-14.78,4.634 -27.83,12.57 -39.658,22.531c-1.52,-0.456 -2.882,-0.421 -3.737,1.197c-7.43,4.13 -14.971,8.17 -22.555,11.878c-8.513,4.162 -15.961,9.836 -23.548,15.076c-5.308,3.667 -9.807,6.053 -16.042,5.011c-2.699,-0.453 -5.472,0.339 -6.292,2.757c-2.969,8.768 -9.975,11.398 -17.852,14.288c-3.873,1.421 -7.546,-0.321 -10.143,0.994c-4.328,2.191 -8.64,5.759 -11.189,9.85c-6.045,9.693 -5.765,10.098 -16.227,8.392c-2.698,-0.439 -5.941,-0.284 -6.46,2.064c-1.533,6.922 -8.766,6.987 -12.634,11.165c-2.648,2.859 -7.445,4.136 -10.184,7.923c-1.992,2.752 -4.375,5.146 -8.557,5.101c-2.121,-0.022 -4.25,1.774 -6.31,3.189c-4.593,3.153 -8.552,8.208 -14.541,8.322c-3.991,0.076 -7.32,1.122 -10.227,3.318c-6.467,4.884 -11.244,11.729 -19.067,15.252c-1.932,0.869 -6.959,3.805 -4.533,8.697c0.127,0.831 0.253,1.663 0.381,2.494" style="fill:#fff;fill-rule:nonzero;"/></g></g><circle cx="259.419" cy="258.905" r="241.435" style="fill:none;stroke:#fff;stroke-width:16.67px;"/></svg>