<?xml version="1.0" encoding="UTF-8" standalone="no"?><!DOCTYPE svg PUBLIC "-//W3C//DTD SVG 1.1//EN" "http://www.w3.org/Graphics/SVG/1.1/DTD/svg11.dtd"><svg width="100%" height="100%" viewBox="0 0 2150 575" version="1.1" xmlns="http://www.w3.org/2000/svg" xmlns:xlink="http://www.w3.org/1999/xlink" xml:space="preserve" xmlns:serif="http://www.serif.com/" style="fill-rule:evenodd;clip-rule:evenodd;stroke-linejoin:round;stroke-miterlimit:2;"><g id="Signature"><path d="M1753.68,46.615l0.319,0.171l0.016,-0.305l-0.335,0.134Zm-78.074,36.36c0.122,-0.081 0.242,-0.161 0.363,-0.242c-0.103,-0.104 -0.26,-0.314 -0.301,-0.293c-0.173,0.085 -0.308,0.24 -0.456,0.371c0.13,0.055 0.263,0.109 0.394,0.164m-890.597,171.467c0.464,1.034 1.026,2.118 2.362,2.28c1.111,0.133 1.133,-0.807 0.989,-1.497c-0.217,-1.046 -0.758,-1.974 -1.986,-2.086c-0.815,-0.075 -1.416,0.243 -1.365,1.303m-284.663,112.109c-0.323,-0.961 -1.001,-1.506 -2.021,-1.45c-0.744,0.041 -0.977,0.679 -0.993,1.306c-0.022,0.957 0.634,1.323 1.472,1.34c0.787,0.019 1.53,-0.131 1.542,-1.196m1163.39,-280.765c1.362,-0.03 1.818,-0.939 1.9,-2.086c0.088,-1.234 -0.682,-1.556 -1.748,-1.384c-1.25,0.203 -2.502,0.517 -2.255,2.181c0.167,1.129 1.164,1.239 2.103,1.289m51.326,-9.4c-1.189,0.701 -3.249,0.193 -3.576,2.241c-0.247,1.542 0.842,1.743 2.051,1.636c1.543,-0.137 3.24,-0.116 3.315,-2.292c0.038,-1.074 -0.544,-1.72 -1.79,-1.585m-269.75,35.177c1.032,0.122 2.644,0.455 2.555,-0.901c-0.164,-2.507 -2.458,-2.73 -4.429,-2.89c-1.333,-0.109 -3.307,-0.155 -3.016,1.698c0.428,2.715 3.172,1.519 4.89,2.093m140.101,-19.877c1.102,-1.352 4.4,0.977 4.465,-1.992c0.041,-1.892 -2.554,-1.856 -4.18,-1.868c-1.475,-0.01 -3.455,0.199 -3.618,1.988c-0.168,1.838 1.666,1.802 3.333,1.872m-365.039,53.196c-0.16,-2.033 -5.312,-3.89 -7.052,-2.264c-1.621,1.513 -3.048,2.239 -5.186,1.901c-0.718,-0.113 -1.667,0.219 -1.452,1.25c0.216,1.042 1.202,0.877 1.851,0.579c2.731,-1.252 5.334,-0.874 7.989,0.266c1.893,0.813 3.234,0.148 3.85,-1.732m196.55,-19.936c1.67,0.98 2.925,-0.215 4.259,-0.082c1.502,0.15 3.252,-0.74 4.474,0.359c1.919,1.723 4.458,2.784 6.118,1.18c1.85,-1.787 5.288,-1.96 5.818,-3.735c1.197,-4.021 4.007,-4.15 7.065,-4.508c1.065,-0.124 2.869,0.595 2.531,-1.402c-0.266,-1.569 -1.949,-1.283 -3.111,-1.022c-3.283,0.735 -7.338,3.248 -9.647,2.116c-6.076,-2.979 -3.335,3.932 -6.163,4.684c-1.822,0.483 -3.503,0.443 -5.251,0.648c-2.043,0.241 -4.585,-0.968 -6.093,1.762m237.494,-64.953l1.846,-0.056c2.352,0.628 4.515,-0.247 6.725,-0.819c2.1,-0.545 4.061,-0.743 4.369,2.277c0.137,1.341 0.134,3.122 2.202,2.626c1.447,-0.346 3.164,0.414 4.269,-1.826c1.518,-3.076 4.461,-4.166 7.747,-2.456c2.899,1.508 5.522,1.444 8.229,-0.395c2.777,-1.887 5.865,-2.515 9.234,-2.057c2.324,0.315 4.776,0.442 3.161,-3.255c-0.322,-0.737 -0.346,-1.653 0.604,-1.882c0.678,-0.165 2.005,-0.07 2.127,0.255c1.414,3.738 4.422,2.324 7.018,2.379c1.015,0.022 2.341,-0.026 2.641,1.333c0.218,0.989 0.58,2.451 -0.728,2.808c-2.166,0.589 -3.652,2.532 -6.35,2.248c-5.482,-0.578 -11.179,1.047 -15.985,2.607c-8.601,2.79 -17.717,2.023 -26.127,5.479c-5.062,2.08 -10.687,2.863 -16.218,3.829c-10.545,1.843 -21.345,3.018 -31.411,7.364c-2.392,1.034 -5.736,2.715 -7.658,2.252c-5.03,-1.207 -8.554,3.617 -13.3,2.309c-0.678,-0.186 -1.612,0.763 -1.609,1.864c2.755,1.861 5.414,1.955 8.18,-0.038c1.962,-1.415 4.418,-1.904 6.633,-1.266c4.945,1.424 9.55,-2.288 14.447,-0.667c0.481,0.159 1.251,-0.132 1.731,-0.45c2.587,-1.716 4.228,-0.539 5.781,1.609c2.149,2.973 4.574,5.428 8.269,1.972c0.701,-0.656 1.235,-0.606 2.018,-0.296c3.74,1.477 2.722,-0.761 1.76,-2.46c-1.689,-2.986 -0.869,-3.585 2.41,-4.315c4.567,-1.017 9.024,1.786 13.107,0.242c5.026,-1.901 9.513,-2.806 14.552,1.458c-3.579,-5.644 -0.066,-5.195 3.13,-5.679c2.922,-0.443 6.152,1.637 8.775,-1.035c0.867,-0.008 1.735,-0.015 2.604,-0.023c0.688,0.784 1.353,0.795 1.991,-0.06c1.213,-0.096 2.425,-0.191 3.637,-0.286c3.492,0.002 7.397,2.879 10.267,-1.471c1.81,0.267 3.555,1.762 5.455,0.288c4.601,-0.616 8.89,-3.041 13.931,-0.832c3.474,1.525 7.583,1.486 9.227,-3.457c0.631,0.002 1.262,0.003 1.892,0.004c5.938,-0.418 11.878,-0.833 17.815,-1.269c0.091,-0.006 0.165,-0.242 0.247,-0.371c1.093,-0.105 2.184,-0.21 3.277,-0.315c1.492,2.026 3.109,2.288 4.973,0.437c1.584,-1.572 3.675,-3.016 5.741,-2.433c6.265,1.77 12.441,1.491 18.388,-0.631c4.426,-1.58 8.985,0.653 12.943,-0.714c4.74,-1.64 9.373,-3.364 14.363,-3.986c0.927,-0.224 1.855,-0.449 2.782,-0.673c4.312,-0.107 8.623,-0.215 12.934,-0.322c0.648,0.014 1.295,0.028 1.942,0.042c1.415,2.137 2.69,5.77 4.7,0.332c0.357,-0.964 1.517,-0.912 2.435,-0.978c6.724,-0.48 13.259,-2.495 20.061,-2.4c1.531,0.022 3.009,-0.601 4.164,-1.74c1.298,0.193 2.616,0.541 3.773,-0.453c3.975,-0.011 7.855,-1.072 11.728,1.795c1.875,1.387 5.749,1.006 5.132,-3.577c3.454,0.508 7.011,-0.701 10.465,1.282c1.342,0.771 4.399,1.482 5.441,-0.695c1.415,-2.954 3.838,-3.089 6.368,-3.661c3.843,-0.867 7.594,-0.008 11.367,0.069c4.802,0.098 9.997,-0.521 14.408,-3.282c0.765,-0.48 1.39,-0.906 2.449,-0.956c6.837,-0.32 13.731,-0.383 20.475,-1.399c7.792,-1.175 15.861,-0.554 23.404,-3.559c1.478,-0.588 3.385,-0.399 5.044,-0.182c5.125,0.668 10.037,-0.643 15.013,-1.374c8.271,-1.216 16.377,-3.635 24.943,-2.553c3.748,0.475 8.021,0.941 11.364,-0.363c7.491,-2.922 14.967,-5.252 23.038,-5.077c1.493,0.032 2.726,-0.077 3.815,-1.012c1.714,-1.469 3.394,-1.853 5.828,-1.559c5.098,0.615 10.295,0.739 15.394,1.067c3.583,0.23 7.569,-2.449 11.795,-3.279c6.019,-1.182 11.876,-1.36 17.838,-1.416c1.742,-0.016 3.303,0.478 2.492,-2.125c-0.359,-1.155 -0.082,-2.015 0.598,-2.978c1.548,-2.193 0.598,-3.289 -1.765,-2.837c-2.951,0.564 -5.774,-0.303 -8.555,-0.292c-3.913,0.016 -6.996,-3.47 -10.576,-2.388c-5.948,1.798 -11.741,-0.354 -17.612,0.135c-2.95,0.246 -5.145,3.008 -8.23,2.109c-3.432,-1.002 -6.716,-1.036 -9.957,0.709c-0.602,0.324 -1.547,0.216 -2.281,0.061c-7.195,-1.519 -14.359,0.427 -21.539,0.152c-3.006,-0.115 -6.032,2.885 -8.005,2.265c-5.522,-1.733 -10.883,0.208 -16.314,-0.262c-5.056,-0.436 -10.433,3.398 -15.927,0.349c-2.958,3.084 -6.466,1.294 -9.837,1.225c-3.936,-0.08 -7.847,-0.477 -11.776,1.143c-2.869,1.183 -6.661,2.347 -9.258,1.391c-3.11,-1.143 -5.211,-0.551 -7.643,0.684c-2.005,1.018 -4.173,1.127 -6.31,1.156c-10.466,0.138 -20.85,1.98 -31.21,2.306c-11.584,0.364 -22.801,3.726 -34.455,3.073c-2.942,-0.165 -6.008,0.361 -9.084,0.149c-1.649,-0.114 -3.962,-0.451 -5.174,1.295c-2.9,4.183 -7.041,3.652 -11.244,3.404c-4.979,-0.292 -10.077,-1.219 -14.656,1.826c-3.07,-1.656 -6.269,-4.132 -8.219,1.296c-2.658,1.667 -5.852,-0.117 -8.543,1.331c-7.585,0.084 -14.934,2.47 -22.575,2.262c-1.957,-0.054 -4.314,0.364 -5.27,2.789l0.015,-0.011c-1.924,1.827 -4.281,1.994 -6.784,1.965c-3.02,-0.034 -6.159,-0.679 -8.95,1.161c-1.226,-0.023 -2.454,-0.045 -3.681,-0.067c-3.091,0.238 -6.182,0.476 -9.274,0.714c-1.869,-0.415 -3.716,-0.304 -5.546,0.232c-1.354,-0.594 -2.663,-0.775 -3.818,0.425c-1.977,-0.388 -3.611,0.872 -5.453,1.134c-2.337,-3.872 -4.95,-2.261 -6.916,0.08c-1.307,1.555 -2.507,2.71 -4.485,2.597c-7.058,-0.401 -13.362,2.858 -20.093,4.017c-0.295,-0.066 -0.589,-0.133 -0.883,-0.198c-1.372,-2.207 -4.496,-4.1 -1.204,-7.132c0.445,-0.411 0.428,-1.165 -0.177,-1.587c-0.965,-0.67 -1.724,-0.265 -2.229,0.647c-0.458,0.83 -0.902,1.737 -2.019,1.224c-0.435,-0.199 -0.828,-0.889 -0.899,-1.403c-0.174,-1.267 0.731,-1.932 1.758,-2.353c1.53,-0.627 3.385,-0.161 4.745,-1.388c1.845,0.408 3.691,0.541 5.536,-0.006c4.911,1.773 9.569,2.375 12.974,-2.809c1.729,0.377 3.206,-0.268 4.627,-1.142c4.456,3.203 4.456,3.203 5.735,-1.518l-0.066,0.064c1.819,-0.218 3.638,-0.436 5.457,-0.654c1.178,0.98 2.447,0.386 3.692,0.214c2.402,4.52 5.775,4.742 9.807,2.256c1.146,-0.705 2.193,-0.712 3.303,0.374c3.11,3.038 5.96,1.539 8.222,-1.061c2.021,-2.324 4.129,-2.591 6.423,-1.032c1.6,1.086 3.715,1.84 4.526,0.389c2.293,-4.099 4.71,-1.636 7.061,-0.455c1.091,-1.54 -1.15,-3.304 0.687,-4.391c1.76,-1.041 3.23,-0.099 4.647,0.934c0.363,0.264 0.909,0.291 1.238,0.58c2.098,1.85 3.79,2.566 3.74,-1.344c-0.022,-1.755 1.003,-2.179 2.358,-1.97c2.546,0.393 5.289,-0.374 7.634,1.178c1.471,0.973 2.947,0.407 3.605,-0.679c1.548,-2.556 3.008,-2.199 5.272,-0.917c1.613,0.914 4.326,1.746 3.004,-2.204c-0.847,-2.53 1.194,-2.274 2.624,-2.564c-0.13,1.167 0.402,1.727 1.562,1.606c0.476,-0.049 0.964,-0.366 0.715,-0.891c-0.508,-1.076 -1.487,-0.754 -2.372,-0.613c2.156,-1.819 5.545,-0.634 7.451,-3.059c3.378,-0.104 6.948,1.578 10.059,-1.217c0.434,-0.39 1.66,-0.396 2.216,-0.067c3.444,2.032 5.939,1.883 9.162,-1.232c1.454,-1.405 6.53,-0.251 8.505,0.961c5.636,3.459 9.784,-0.154 14.022,-1.943c2.984,-1.26 5.237,-2.383 8.862,-2.38c5.235,0.004 10.614,-0.641 15.955,-0.784c4.378,-0.117 8.63,-1.518 13.176,-0.096c2.421,0.757 5.5,-0.778 7.701,-1.808c4.853,-2.271 9.785,-2.225 14.784,-2.301c3.534,-0.055 7.067,0.011 10.49,-0.924c1.958,-0.535 3.581,0.391 5.361,0.631c2.066,0.281 5.25,1.542 5.004,-3.469c3.025,4.164 7.026,3.044 9.515,1.168c5.587,-4.213 10.788,-1.209 16.218,-0.577c3.571,0.415 7.717,2.316 10.026,-2.571c0.391,-0.828 1.066,-1.01 1.894,-0.501c4.834,2.971 11.153,2.355 15.194,-1.08c2.157,-1.833 5.102,-2.363 7.857,-2.306c5.316,0.11 10.849,-0.186 15.869,1.21c4.985,1.385 9.523,0.071 13.954,-0.758c3.715,-0.695 7.682,-1.336 11.455,-2.7c2.339,-0.845 6.661,-1.156 9.819,-0.257c6.4,1.823 13.092,1.469 19.335,2.731c6.11,1.235 11.594,-1.341 17.934,0.093c6.825,1.543 14.688,1.92 22.062,1.893c5.409,-0.022 7.117,3.17 9.224,6.606c2.654,4.327 0.28,10.527 -2.337,14.629c-3.893,6.102 -9.863,5.794 -15.347,7.238c-2.226,0.586 -3.921,1.632 -5.509,3.109c-1.378,-0.365 -2.549,0.205 -3.709,0.821c-1.227,-0.024 -2.453,-0.048 -3.678,-0.073c-3.184,-0.94 -6.221,-2.152 -9.765,-1.675c-3.433,0.462 -6.594,-0.386 -9.689,3.014c-2.124,2.335 -7.363,0.481 -10.317,3.695c-0.666,0.727 -1.783,-0.417 -2.5,-1.374c-1.776,-2.373 -3.993,-2.225 -5.82,-0.174c-2.21,2.481 -3.741,2.214 -5.993,-0.13c-1.609,-1.673 -4.081,-2.056 -5.865,0.432l-0.279,0.063l0.006,0.287c-2.569,1.294 -5.246,2.432 -7.073,4.815l-0.334,-0.131c-0,-0 -0.157,0.324 -0.159,0.325c-5.904,-2.35 -11.707,-3.354 -17.451,0.602c-2.474,1.702 -5.544,1.612 -7.761,-0.058c-2.619,-1.973 -4.269,-1.152 -5.839,0.851c-2.221,2.834 -5.313,2.716 -8.373,2.833c-0.717,0.026 -1.611,0.177 -1.871,-0.831c-0.256,-0.993 0.439,-1.315 1.213,-1.578c1.074,-0.365 3.004,-0.574 1.394,-2.217c-2.029,-2.07 -5.986,-2.823 -6.88,-0.622c-1.48,3.644 -4.825,3.61 -7,5.579c-2.294,2.076 -4.682,2.282 -6.773,-0.321c-0.909,-1.134 -2.293,-1.824 -3.134,-0.862c-3.629,4.151 -8.652,1.113 -12.816,2.727c-2.536,0.983 -5.646,1.251 -7.572,-2.179c-0.761,-1.353 -6.8,0.595 -6.999,2.076c-0.388,2.877 -0.986,3.329 -3.826,2.189c-7.273,-2.92 -13.501,-1.34 -18.94,4.08c-0.938,0.006 -1.875,0.013 -2.813,0.02c-0.301,-3.648 -2.76,-4.304 -5.795,-4.218c-4.555,0.129 -7.242,2.5 -8.328,6.836l-0.355,-0.04l-0.317,0.16c-0.622,0.003 -1.243,0.005 -1.866,0.007l-0.03,-0.003c-7.408,-4.122 -14.948,-5.25 -22.859,-1.301c-1.348,0.674 -1.483,1.764 -2.058,2.801c-0.859,1.551 -2.511,1.659 -4.069,1.646c-2.281,-0.019 -0.81,-1.553 -1.086,-2.467c-0.651,-2.146 -2.519,-1.649 -3.546,-0.45c-2.082,2.435 -4.456,2.095 -6.62,0.794c-2.523,-1.516 -4.838,-0.221 -7.186,-0.049c-5.589,0.407 -11.309,-1.442 -16.795,1.076c-1.621,0.745 -3.585,0.6 -4.333,2.85c-1.009,3.036 -4.498,-0.333 -6.303,2.368c-0.998,1.493 -4.263,2.894 -5.484,-0.984c-0.052,-0.162 -0.563,-0.337 -0.781,-0.267c-4.723,1.54 -10.386,-0.643 -14.368,4.091c-2.78,3.303 -4.233,2.807 -6.596,-0.744c-1.044,-1.569 -2.447,-4.217 -4.374,-0.051c-0.994,2.147 -3.715,3.546 -6.651,2.806c-0.296,-0.075 -0.621,-0.128 -0.917,-0.088c-3.087,0.419 0.748,-6.816 -3.472,-3.668c-2.6,1.939 -4.527,0.892 -6.725,1.111c-2.565,0.255 -5.359,-0.436 -6.835,2.601c-0.122,0.251 -0.523,0.624 -0.66,0.573c-3.439,-1.269 -7.451,1.518 -9.984,0.103c-4.243,-2.371 -8.259,0.77 -12.133,-0.924c-0.248,-0.11 -0.846,0.29 -1.128,0.594c-2.296,2.481 -5.477,3.791 -8.722,2.958c-6.97,-1.788 -13.896,0.609 -20.918,0.053c-3.244,-0.256 -7.776,2.19 -10.22,4.044c-4.359,3.308 -9.581,-1.101 -13.064,2.985c-0.054,0.066 -0.888,-0.773 -1.374,-0.793c-2.609,-0.103 -5.99,-3.187 -7.186,2.322c-0.351,1.62 -3.02,0.547 -4.115,-0.594c-1.163,-1.212 -2.057,-2.485 -3.759,-3.207c-3.451,-1.465 -5.509,-1.079 -5.593,3.146l0.103,-0.076c-8.017,-0.647 -15.852,2.161 -23.886,1.258c-1.201,-0.135 -1.432,0.965 -1.942,1.682c-0.541,0.758 -1.182,1.868 -2.107,1.525c-4.727,-1.753 -9.798,1.686 -14.419,-1.049c-0.695,-0.411 -1.415,-0.551 -2.152,-0.026c-6.005,4.279 -12.797,3.977 -19.481,2.801c-4.212,-0.739 -7.417,2.118 -11.63,1.944c-4.629,-0.191 -8.995,0.353 -12.458,-3.605c-1.176,2.171 0.52,2.238 1.093,2.927c0.764,0.919 1.481,1.689 -0.227,2.4c-5.884,2.45 -11.778,4.254 -18.364,3.059c-2.52,-0.458 -5.26,-0.467 -7.802,1.598c-2.679,2.179 -5.348,3.962 -9.847,1.58c-2.668,-1.412 -7.394,-1.256 -11.655,0.043c-3.371,1.027 -7.538,3.171 -12.118,0.819c-3.493,-1.793 -8.013,0.685 -11.446,2.05c-4.779,1.899 -9.56,1.276 -14.267,2.163c-2.159,0.408 -4.459,0.07 -7.01,0.07c0.855,3.285 4.097,2.56 4.915,5.134c-0.436,1.299 -2.42,1.534 -3.134,0.809c-4.111,-4.166 -8.411,-1.69 -12.61,-0.623c-1.827,0.464 -2.608,-1.577 -4.598,-1.044c-8.264,2.211 -16.34,5.197 -25.027,5.748c-6.58,0.418 -11.898,4.728 -18.038,6.655c-3.38,1.061 -6.512,2.625 -10.185,1.419c-2.032,-0.667 -3.519,0.131 -3.335,2.382c0.25,3.071 -0.999,2.189 -3.183,2.146c-5.685,-0.112 -10.839,2.617 -16.156,4.374c-0.713,0.236 -1.345,1.154 -1.983,1.122c-9.346,-0.473 -16.754,4.702 -24.75,8.24c-2.402,1.063 -4.877,-1.111 -7.918,0.314c-9.505,4.455 -18.547,10.155 -28.778,12.799c-9.116,2.356 -17.272,7.257 -26.313,9.473c-7.245,1.776 -13.045,5.954 -19.311,9.413c-1.064,0.588 -2.078,0.346 -3.082,0.595c-3.022,0.75 -6.549,0.155 -8.745,3.212c-0.247,0.344 -0.819,0.765 -1.144,0.696c-8.728,-1.848 -13.347,5.806 -20.069,8.554c-2.738,1.12 -5.778,1.527 -8.704,2.144c-1.348,0.283 -3.202,-0.233 -4.064,0.506c-6.094,5.213 -16.434,4.469 -19.504,13.902c-0.515,1.579 -1.92,2.678 -3.496,2.527c-8.091,-0.769 -13.54,4.449 -19.423,8.522c-1.53,1.058 -2.359,2.582 -3.901,0.321c-0.974,-1.43 -2.365,-1.362 -3.699,-0.793c-1.695,0.723 -0.881,2.175 -1.021,3.501c-0.543,5.129 2.6,6.672 6.607,6.761c4.279,0.096 7.645,3.282 11.939,2.992c0.359,-0.024 0.763,0.47 1.128,0.746c0.812,0.613 0.075,1.209 -0.275,1.271c-4.439,0.787 1.054,7.597 -4.026,7.157c-3.463,-0.301 -5.624,0.824 -7.724,2.948c-1.095,1.108 -2.74,2.019 -3.651,1.06c-3.041,-3.203 -5.633,-1.657 -8.681,-0.128c-1.36,0.682 -3.359,0.292 -4.918,-0.585c-3.631,-2.042 -7.858,-1.336 -11.727,-2.618c-3.446,-1.142 -7.049,-4.117 -7.486,-7.97c-0.34,-2.996 1.577,-7.192 -3.986,-7.445c-0.187,-0.009 -0.555,-1.08 -0.445,-1.569c0.221,-0.985 1.196,-0.968 1.898,-0.749c2.906,0.908 4.164,-0.605 5.205,-3.04c1.859,-4.351 6.767,-5.76 10.147,-6.9c5.192,-1.753 9.302,-6.285 14.594,-6.442c5.735,-0.17 8.14,-3.485 10.859,-7.376c1.604,-2.297 3.894,-0.734 5.698,-0.016c2.513,0.999 4.718,2.27 5.294,-1.942c0.216,-1.576 2.567,-2.215 3.128,-2.205c6.151,0.102 9.773,-8.053 16.831,-4.963c2.137,0.938 3.452,-0.739 3.574,-2.957c0.2,-3.621 1.754,-5.18 5.345,-3.586c1.42,0.63 1.925,0.196 2.906,-1c1.853,-2.255 3.935,-5.162 7.517,-2.194c0.693,0.576 1.643,0.435 2.034,-0.282c2.393,-4.399 6.187,-6.02 11.011,-6.156c0.967,-0.028 1.893,-1.418 2.85,-2.161c0.723,-0.562 1.745,-1.726 2.161,-1.543c4.303,1.892 8.097,-1.783 12.322,-0.95c2.156,0.424 3.747,-1.541 5.304,-2.728c1.63,-1.241 2.679,-1.896 4.787,-0.707c2.704,1.525 5.851,-0.267 5.948,-3.364c0.084,-2.723 1.706,-2.336 3.365,-2.575c2.935,-0.425 6.026,-0.18 7.713,-3.791c0.896,-1.921 3.135,-1.425 3.896,0.589c1.645,4.356 4.374,2.467 5.942,0.659c1.826,-2.106 3.2,-2.833 5.758,-1.609c1.165,0.556 2.518,-0.296 3.215,-1.333c1.125,-1.671 -0.996,-1.397 -1.492,-2.126c-1.573,-2.31 -0.684,-3.582 1.824,-3.553c2.479,0.031 4.091,-1.382 6.119,-2.354c5.577,-2.669 11.588,-4.994 17.9,-2.228c1.878,0.822 3.417,0.804 4.578,-0.593c2.028,-2.436 4.958,-3.902 7.25,-5.918c2.109,-1.857 6.192,-2.94 9.48,-4.151c3.131,-1.154 6.067,-2.832 9.7,-2.784c1.754,0.023 1.052,-2.262 1.059,-3.795c0.011,-2.406 -1.457,-2.616 -2.971,-2.465c-3.837,0.38 -7.477,0.347 -11.169,-1.27c-1.334,-0.585 -2.885,-0.632 -3.923,-1.908c-2.601,-3.194 -6.181,-3.953 -10.137,-3.905c2.318,1.15 6.462,1.476 5.657,4.573c-0.932,3.577 -4.824,0.748 -7.303,1.352c-4.212,1.027 -8.87,0.832 -12.431,3.665c-1.123,0.894 -1.809,0.59 -2.811,0.515c-5.565,-0.415 -11.13,-0.821 -16.537,1.174c-1.133,0.418 -2.254,0.663 -3.579,0.235c-4.046,-1.309 -6.936,-0.472 -10.073,2.482c-0.359,0.338 -1.278,0.605 -1.585,0.393c-2.696,-1.855 -5.749,-0.451 -8.583,-1.029c-1.643,-0.337 -3.721,-0.324 -4.594,1.337c-0.955,1.822 2.287,1.704 2.155,3.68c-4.462,2.428 -7.13,-1.395 -9.136,-3.762c-2.475,-2.92 -4.337,-2.572 -6.993,-1.121c-0.926,0.507 -2.016,1.154 -2.98,1.08c-9.367,-0.72 -18.099,2.942 -27.222,3.832c-0.709,0.069 -1.475,-0.566 -2.286,0.317c3.16,0.812 6.12,1.922 9.271,0.169c0.724,-0.403 1.949,-0.513 2.684,-0.183c2.763,1.239 5.342,1.164 8.252,0.258c3.81,-1.186 7.761,-2.142 11.707,0.141c1.283,0.743 2.482,-0.693 3.707,-1.271c0.969,-0.456 2.657,-0.962 3.153,0.633c0.498,1.606 -1.011,2.05 -2.221,2.195c-6.615,0.795 -13.234,1.571 -19.863,2.242c-5.139,0.519 -10.244,0.738 -15.363,1.99c-7.806,1.91 -15.785,2.488 -23.437,-1.431c-3.673,-1.881 -6.463,0.521 -8.939,2.852c-2.888,2.721 -5.714,4.369 -9.613,1.731c-1.892,-1.279 -4.079,-0.815 -5.275,1.141c-1.805,2.952 -4.593,3.347 -7.544,3.542c-6.03,0.397 -11.879,1.134 -18.144,0.294c-5.998,-0.805 -12.936,-1.943 -18.959,2.21c-1.433,0.987 -4.623,-0.706 -6.221,0.206c-2.827,1.614 -7.176,-2.016 -9.042,3.071c-0.457,1.243 -3.695,-0.447 -5.58,-0.394c-2.68,0.075 -3.607,-0.67 -3.486,-3.349c0.06,-1.364 -1.114,-1.768 -2.311,-0.98c-1.764,1.162 -4.256,0.901 -5.574,2.995c-0.363,0.577 -1.531,1.327 -1.86,1.145c-5.851,-3.23 -11.186,1.77 -16.864,0.975c-2.118,-0.296 -4.272,0.308 -6.438,-0.244c-2.444,-0.623 -4.119,0.479 -3.383,3.045c1.19,4.144 -3.375,1.21 -3.865,3.349c-0.087,0.376 -1.882,0.182 -2.027,-1.018c-0.247,-2.053 1.445,-1.943 2.766,-2.269c0.996,-0.247 1.662,-0.948 1.319,-2.033c-0.275,-0.875 -1.269,-1.17 -1.892,-0.76c-2.361,1.55 -7.195,-2.05 -7.64,3.888c-0.103,1.39 -2.898,1.239 -4.602,1.092c-4.335,-0.371 -7.853,-0.482 -11.756,3.37c-3.331,3.29 -9.486,4.909 -14.43,4.991c-3.866,0.065 -7.5,2.411 -11.527,0.918c-1.327,-0.492 -2.836,-0.067 -3.937,-1.604c-1.047,-1.465 -3.623,-1.344 -4.13,-0.445c-1.692,3.003 -5.384,2.029 -7.458,4.533c-1.665,2.009 -4.56,0.992 -6.718,-0.624c-3.657,-2.738 -9.785,-2.232 -12.349,1.279c-1.436,1.969 -2.781,1.642 -4.283,0.559c-3.693,-2.665 -6.65,-1.406 -9.131,1.718c-2.208,2.779 -4.279,4.075 -7.735,1.559c-2.451,-1.783 -5.336,0.093 -8.011,0.445c-0.297,0.04 -0.812,1.132 -0.657,1.488c2.056,4.697 -1.822,3.739 -3.434,3.003c-5.287,-2.413 -10.324,1.523 -15.574,0.203c-0.942,-0.236 -2.762,2.174 -3.863,3.604c-2.497,3.246 -5.937,3.399 -8.564,1.351c-2.954,-2.302 -4.836,-1.05 -6.818,0.591c-2.881,2.383 -5.934,3.754 -9.719,3.058c-0.446,-0.082 -0.942,-0.199 -1.359,-0.09c-3.05,0.8 -6.285,4.22 -8.261,3.598c-3.078,-0.969 -5.986,-1.878 -9.19,-1.74c-1.246,0.053 -2.59,0.407 -3.565,-0.464c-4.051,-3.62 -7.064,-0.043 -10.382,1.393c-0.587,0.254 -1.101,0.774 -0.784,1.443c1.692,3.57 -1.053,1.939 -2.362,2.076c-2.107,0.22 -6.43,-2.577 -4.476,3.327c0.371,1.121 -0.982,1.349 -1.935,1.21c-6.123,-0.895 -11.419,3.002 -17.236,3.096c-4.516,0.073 -8.364,3.652 -13.039,1.981c-0.681,-0.242 -1.336,0.184 -1.364,0.841c-0.223,5.303 -4.925,3.646 -7.678,5.031c-4.583,2.306 -10.218,0.129 -14.581,3.544c-1.179,0.923 -2.833,1.253 -3.526,2.796c-1.302,2.9 -3.959,3.881 -6.715,4.212c-2.608,0.313 -3.685,2.03 -4.678,3.925c-0.75,1.434 -0.612,3.027 1.449,2.86c3.526,-0.287 4.393,2.236 3.641,4.351c-1.812,5.105 -0.048,10.653 -2.715,15.668c-2.191,4.118 -8.27,7.239 -12.775,7c-4.542,-0.243 -9.019,-0.331 -13.544,2.857c-4.019,2.832 -9.051,5.978 -14.83,4.617c-2.208,-0.519 -3.541,0.423 -5.313,1.625c-4.576,3.105 -8.706,7.077 -15.382,5.799c-3.133,-0.6 -6.058,3.268 -9.664,3.714c-0.577,0.071 -1.187,0.846 -1.649,0.737c-7.428,-1.77 -13.934,3.659 -21.255,2.677c-1.499,-0.201 -3.107,-0.348 -3.875,1.596c-0.172,0.432 -1.134,1.016 -1.399,0.879c-6.446,-3.301 -8.426,3.311 -12.405,5.483c-7.364,4.02 -13.742,9.854 -23.05,10.081c-5.885,0.144 -11.716,2.332 -17.71,2.811c-1.137,0.092 -1.961,0.678 -2.567,1.713c-2.283,3.903 -6.15,3.771 -9.886,3.589c-3.223,-0.156 -6.413,0.835 -9.716,-0.749c-2.586,-1.243 -3.375,2.116 -4.596,3.494c-3.392,3.831 -13.272,7.148 -17.488,4.72c-2.631,-1.515 -3.866,-0.984 -5.125,1.202c-1.087,1.888 -2.154,3.187 -3.915,0.599c-0.235,-0.347 -0.847,-0.766 -1.157,-0.681c-4.174,1.14 -8.343,2.305 -12.455,3.645c-0.501,0.162 -0.548,1.387 -0.079,2.123c0.493,0.773 1.274,0.873 2.03,0.616c1.609,-0.548 3.167,-1.19 4.918,-0.548c1.031,0.378 2.94,-0.624 2.983,1.153c0.042,1.777 -1.986,2.877 -3.266,2.452c-3.731,-1.239 -5.82,0.14 -8.148,2.995c-2.13,2.61 -4.738,-0.534 -7.183,-0.735c-0.935,-0.077 -1.851,-1.401 -2.545,0.243c-2.303,5.458 -6.385,3.701 -10.045,2.221c-2.179,-0.88 -4.244,-1.235 -6.21,-0.315c-1.476,0.69 -3.707,1.75 -1.829,4.133c0.898,1.138 0.54,1.929 -0.295,2.789c-0.999,1.028 -2.161,1.176 -3.359,0.506c-1.122,-0.627 -2.049,-2.2 -3.439,-0.374c-2.648,3.477 -5.495,1.738 -8.053,0.029c-1.448,-0.968 -2.879,-2.826 -3.935,-0.366c-0.843,1.961 -6.648,2.134 -2.419,6.033c1.359,1.253 1.168,3.248 -0.342,3.12c-3.961,-0.338 -5.726,3.196 -8.847,4.144c-4.9,1.488 -8.625,-2.134 -12.88,-3.23c-3.732,-0.961 -3.558,-0.04 -3.076,2.635c-0.355,0.323 -0.712,0.645 -1.068,0.968c-2.089,0.089 -4.214,-1.265 -6.272,0.171c-0.634,0.444 -1.394,0.845 -1.366,1.721c0.032,1.02 0.876,1.05 1.659,1.133c1.454,0.153 3.083,0.539 2.219,2.417c-0.593,1.292 -1.939,1.205 -3.554,0.847c-3.857,-0.852 -7.448,0.037 -9.728,3.707c-1.104,1.778 -2.384,1.212 -3.983,0.817c-2.76,-0.684 -6.136,-2.99 -6.718,2.843c-0.243,2.435 -3.832,2.63 -5.488,1.527c-5.159,-3.433 -8.797,0.226 -11.446,3.005c-3.173,3.328 -6.732,5.288 -10.817,6.282c-3.537,0.861 -6.89,2.608 -11.095,0.913c-4.113,-1.659 -6.332,3.036 -8.941,5.264c-2.395,2.042 -4.402,3.459 -7.655,3.058c-5.886,-0.723 -10.536,2.43 -15.229,5.313c-0.906,0.556 -2.028,1.795 -2.676,1.583c-5.963,-1.959 -11.025,2.289 -16.67,2.213c-1.22,-0.016 -3.145,-0.143 -3.02,1.272c0.376,4.248 -2.235,3.996 -4.969,3.823c-2.746,-0.174 -4.543,3.443 -7.745,1.84c-0.631,-0.316 -0.223,0.957 -0.392,1.467c-1.553,4.663 -7.311,6.535 -11.866,4.809c-2.719,-1.028 -6.762,-3.82 -8.712,1.74c-0.785,2.239 -3.089,2.656 -4.522,1.293c-3.146,-2.989 -5.062,-0.512 -6.265,1.469c-3.101,5.104 -8.075,5.686 -13.055,5.898c-5.912,0.253 -10.539,3.029 -15.05,6.329c-0.239,0.177 -0.518,0.388 -0.625,0.647c-1.624,3.956 -1.628,3.978 -5.424,2.201c-1.923,-0.901 -3.321,-0.879 -3.487,1.708c-0.079,1.25 -1.017,2.596 -1.894,2.033c-5.792,-3.719 -9.452,3.031 -14.65,2.779c-3.562,-0.173 -6.68,1.98 -9.857,4.147c-2.465,1.683 -5.418,2.284 -6.432,5.616c-0.115,0.378 -1.083,0.75 -1.621,0.705c-7.842,-0.651 -14.382,3.535 -21.266,6.069c-4.057,1.494 -6.922,1.53 -9.878,-1.504c-1.109,-1.139 -2.43,-1.979 -4.079,-0.298c1.099,0.986 3.937,0.01 3.326,2.675c-0.555,2.415 -2.235,4.322 -4.491,4.838c-2.269,0.518 -3.869,1.692 -5.52,3.071c-0.69,0.577 -1.977,1.543 -2.258,1.336c-4.791,-3.538 -4.889,0.401 -6.284,3.427c-1.373,2.978 -4.487,4.14 -7.421,2.289c-2.382,-1.503 -3.545,-0.377 -5.198,0.87c-3.799,2.863 -7.659,5.768 -12.812,5.384c-3.653,-0.272 -5.246,2.698 -7.353,4.683c-1.033,0.975 -1.852,2.131 -3.302,2.199c-2.254,0.106 -4.708,-0.453 -5.224,2.88c-0.047,0.303 -1.446,0.75 -2.03,0.558c-4.333,-1.417 -7.647,0.596 -11.102,2.79c-5.003,3.175 -11.35,3.029 -16.356,6.347c-3.976,2.637 -9.366,3 -12.07,7.725c-1.371,2.395 -3.722,1.193 -5.629,0.956c-2.838,-0.352 -5.232,-0.434 -6.099,3.105c-0.496,2.023 -1.877,2.294 -3.947,1.836c-2.938,-0.649 -6.367,-1.134 -5.263,3.918c0.29,1.325 -0.305,1.65 -1.395,1.695c-1.996,0.08 -3.976,0.087 -5.844,1.064c-0.911,0.477 -2.058,0.137 -2.032,-1.052c0.108,-5.028 -2.362,-2.044 -3.786,-1.144c-1.446,0.916 -2.753,1.942 -4.541,2.082c-1.188,0.094 -2.717,-0.062 -2.635,1.775c0.08,1.77 1.502,2.027 2.93,2.343c1.436,0.318 4.345,-1.268 4.046,0.911c-0.346,2.534 -3.284,1.893 -5.425,1.252c-2.757,-0.823 -5.794,-0.453 -8.357,-2.233c-1.301,-0.903 -1.857,-0.153 -2.509,1.361c-2.347,5.453 -4.803,6.559 -10.38,4.72c-3.411,-1.124 -5.798,0.196 -7.608,2.679c-1.54,2.111 -2.712,4.368 -5.736,4.577c-0.512,0.036 -1.178,0.595 -1.44,1.09c-2.994,5.634 -9.362,6.479 -13.955,9.835c-2.182,1.593 -4.894,1.91 -7.565,2.508c-2.926,0.652 -6.409,1.963 -9.007,4.237c-1.757,1.539 -3.6,2.725 -6.1,2.964c-2.996,0.286 -7.155,-1.04 -7.419,4.218c-0.006,0.114 -0.209,0.317 -0.315,0.313c-7.272,-0.271 -10.772,8.398 -18.857,7.45c-3.956,-0.465 -9.326,0.092 -12.288,4.921c-0.829,1.352 -3.15,1.774 -4.763,2.665c-3.428,1.894 -6.737,4.042 -10.281,5.684c-8.078,3.741 -13.541,0.378 -14.138,-8.432c-0.092,-1.364 -0.764,-2.715 -0.724,-4.057c0.106,-3.582 1.335,-5.64 5.63,-6.288c7.527,-1.133 14.872,-3.044 21.816,-6.801c4.08,-2.209 9.47,-1.861 14.119,-3.195c4.366,-1.251 9.14,-2.439 10.346,-7.965c0.291,-1.34 1.146,-1.662 2.349,-1.656c7.611,0.035 13.876,-4.387 20.892,-6.284c4.831,-1.306 8.553,-4.929 13.704,-5.701c2.77,-0.415 5.7,-1.608 7.705,-4.453c1.694,-2.404 5.083,-2.665 7.783,-3.67c5.051,-1.881 9.402,-5.938 15.383,-5.049c0.519,0.077 1.456,-0.264 1.635,-0.663c3.21,-7.142 11.22,-4.169 16.202,-7.644c0.947,-0.661 2.543,-0.37 3.354,-1.834c1.376,-2.481 3.421,-3.893 6.45,-3.181c0.292,0.068 0.802,0.127 0.896,-0.017c3.218,-4.914 9.169,-3.848 13.654,-6.03c3.794,-1.845 7.506,-4.88 12.231,-4.338c3.513,0.403 5.994,-0.535 6.828,-4.353c0.311,-1.43 1.417,-2.713 2.857,-2.708c6.168,0.02 10.673,-4.268 16.144,-6.057c3.095,-1.013 6.349,0.22 9.397,-1.713c2.782,-1.763 4.82,-4.443 8.685,-5.2c2.494,-0.489 5.044,-2.251 8.025,-2.414c1.499,-0.083 2.973,-0.298 3.955,-2.366c1.45,-3.06 5.363,-1.715 7.989,-3.101c2.528,-1.334 6.008,-0.708 7.128,-4.657c0.305,-1.075 2.858,-2.181 4.347,-2.14c8.752,0.253 14.956,-6.269 22.827,-8.305c1.923,-0.496 3.746,-1.289 5.784,-1.316c1.055,-0.014 2.468,0.276 3.036,-0.715c2.872,-5.016 8.995,-4.924 12.838,-8.362c1.043,-0.849 2.086,-1.697 3.13,-2.545c0.425,-0.093 0.851,-0.185 1.276,-0.277c2.979,0.518 4.888,-1.944 7.424,-2.664c3.536,0.547 7.054,0.08 10.577,-0.174c0.306,-0.023 0.768,0.023 0.892,-0.151c3.151,-4.42 8.877,-4.711 12.559,-7.569c3.821,-2.964 8.105,-5.786 12.013,-5.73c5.98,0.086 9.418,-5.081 14.747,-5.104c5.412,-0.023 9.395,-4.421 14.741,-4.402c0.154,0.001 0.359,0.026 0.452,-0.057c5.785,-5.201 13.939,-4.556 20.393,-8.334c5.115,-2.995 10.077,-6.329 15.305,-8.992c3.755,-1.911 8.589,-1.772 12.966,-2.368c1.921,-0.262 3.527,-0.741 4.849,-2.282c0.659,-0.77 1.719,-1.46 2.7,-1.647c7.749,-1.478 14.261,-6.413 21.686,-8.186c5.143,-1.229 10.026,-3.43 14.205,-5.664c7.594,-4.062 15.95,-5.13 23.762,-7.687c6.6,-2.161 12.571,-6.792 20.219,-6.497c2.884,0.112 6.796,-2.668 8.443,-4.461c4.148,-4.513 8.369,-1.855 12.41,-1.852c3.249,0.002 6.559,2.031 7.656,-3.185c0.235,-1.117 2.256,-2.553 3.532,-2.635c4.748,-0.307 8.592,-3.867 13.478,-3.484c0.702,0.055 1.755,-0.198 2.125,-0.696c3.012,-4.051 5.684,-2.511 8.546,0.212c1.436,1.369 3.823,1.881 5.02,0.47c1.75,-2.063 -0.911,-2.613 -2.131,-3.517c-0.614,-0.453 -1.386,-0.824 -1.094,-1.758c0.319,-1.025 1.382,-1.567 2.167,-1.388c2.974,0.683 4.991,-1.041 7.35,-2.269c1.753,-0.913 3.583,-1.712 6.059,-1.111c2.999,0.729 5.83,-2.576 6.893,-4.143c1.55,-2.283 3.429,-2.793 5.094,-2.805c6.026,-0.04 11.315,-3.115 17.222,-3.918c2.697,-0.367 8.155,-0.434 9.736,-5.125c0.047,-0.139 0.209,-0.37 0.266,-0.355c5.368,1.328 9.215,-6.216 14.84,-2.62c1.4,0.894 1.657,0.106 2.561,-0.455c2.664,-1.65 5.491,-3.037 8.233,-4.564c0.763,-0.425 1.437,-0.209 2.202,-0.046c1.988,0.426 6.822,3.767 2.534,-2.497c-1.251,-1.828 0.923,-2.655 2.082,-2.139c2.496,1.109 4.721,0.436 6.593,-0.764c4.402,-2.82 9.445,-4.179 14.147,-6.174c4.964,-2.106 10.352,-3.744 16.169,-3.369c3.082,0.199 8.058,2.407 8.694,-3.89c0.034,-0.346 1.085,-0.948 1.514,-0.839c4.35,1.101 8.146,-1.836 12.538,-1.492c3.541,0.277 6.181,-3.231 9.404,-4.736c1.377,-0.642 2.482,-1.697 4.175,-1.505c1.7,0.192 3.515,0.418 3.675,-2.151c0.015,-0.22 0.41,-0.597 0.634,-0.601c7.607,-0.121 12.673,-8.346 20.926,-6.511c2.401,0.534 5.054,-1.815 7.423,0.487c0.107,0.105 0.98,-0.234 1.081,-0.515c1.823,-5.058 7.531,-4.586 10.776,-7.609c0.852,-0.793 1.839,-0.509 2.984,-0.218c3.577,0.909 8.658,-1.521 10.685,-4.842c0.553,-0.905 1.46,-1.116 2.363,-1.236c2.961,-0.389 6.184,0.376 8.624,-2.2c0.477,-0.505 1.061,0.092 1.557,0.471c2.531,1.944 4.943,4.128 6.85,-0.864c0.559,-1.464 3.166,0.127 4.592,-1.317c1.506,-1.526 3.378,-2.686 4.47,-4.619c1.343,-0.852 2.689,-1.703 4.034,-2.554c3.344,0.86 4.884,-1.927 7.034,-3.478c1.95,-0.288 2.265,-1.483 1.747,-3.143c-0.58,-4.938 -0.349,-9.996 -2.209,-14.742c0.157,-1.359 0.823,-2.401 1.967,-3.144c1.432,0.253 2.419,-0.244 2.848,-1.684c1.479,-1.457 2.241,-4.069 5.161,-3.2c4.022,3.05 2.523,-1.753 3.768,-2.65l0.064,-0.012c1.704,1.036 3.101,1.511 5.18,0.1c3.004,-2.04 7.187,-1.783 9.861,-4.905c1.373,-1.603 3.476,0.745 5.211,-0.19c0.656,-0.016 1.311,-0.03 1.967,-0.045c2.343,-1.572 6.875,0.998 7.446,-3.932c0.672,-0.038 1.346,-0.076 2.019,-0.115c1.951,-3.359 5.409,-4.196 8.75,-5.23l0.366,-0.006c2.48,0.182 5.285,2.247 7.135,-1.229c1.278,0.131 2.266,-0.364 3.004,-1.396c1.232,-0.39 2.463,-0.781 3.695,-1.171c0.613,-0.055 1.225,-0.112 1.836,-0.169c5.404,-0.696 10.847,-1.282 15.058,-5.339l0.424,0.054l0.365,-0.22c0.856,0.33 1.704,0.368 2.54,-0.066c1.922,0.102 3.867,0.57 5.723,-0.364c5.146,1.963 8.623,-2.603 13.078,-3.341c1.659,-0.788 3.811,2.537 5.188,-0.621c0.463,-0.385 0.926,-0.769 1.388,-1.153c0.916,-0.01 1.831,-0.02 2.747,-0.029c2.652,0.055 5.302,0.106 6.296,-3.151c0.617,-0.085 1.233,-0.169 1.85,-0.254c4.085,1.477 7.764,0.407 11.266,-1.791c1.514,-0.163 3.029,-0.327 4.544,-0.491c1.018,0.303 2.273,1.147 3.015,0.822c5.569,-2.438 11.361,-2.047 17.185,-1.849c1.404,0.046 1.324,-1.41 1.345,-2.483c4.002,-0.365 7.388,-3.384 11.634,-2.698c3.579,0.766 6.659,0.4 8.136,-3.594c0.798,0.482 1.626,0.495 2.475,0.136c2.911,1.864 4.961,0.059 7.034,-1.649c4.092,-0.212 8.183,-0.424 12.275,-0.636c3.742,-1.708 8.519,0.974 11.781,-2.772c1.945,-0.293 3.888,-0.587 5.833,-0.879c2.643,-0.7 5.527,0.276 8.062,-1.167c2.551,0.993 5.084,1.671 7.472,-0.398c2.964,2.154 6.526,-1.443 9.502,0.951c0.084,0.067 0.95,-0.46 0.993,-0.773c0.443,-3.235 3.614,-2.766 5.444,-4.094c1.712,-0.295 3.426,-0.59 5.137,-0.885c0.681,1.3 1.903,1.64 3.105,1.243c4.476,-1.48 8.973,-2.471 13.744,-1.903c1.493,0.179 2.592,-0.728 3.073,-2.223c2.154,-0.296 4.309,-0.591 6.464,-0.887c2.851,1.636 5.272,-0.432 7.877,-0.915c0.757,-0.02 1.512,-0.039 2.27,-0.059c1.41,0.509 2.149,0.033 2.179,-1.485c0.429,-0.11 0.857,-0.222 1.286,-0.332c5.035,0.995 10.005,1.871 15.101,-0.066c3.54,-1.344 6.961,-3.838 11.222,-1.257c1.431,0.867 2.612,-0.926 2.613,-2.724c4.44,0.286 8.71,-0.778 13.004,-1.639c1.488,-0.712 2.949,-0.216 4.48,-0.077c3.592,0.326 7.383,1.202 10.409,-1.856c5.497,-0.105 11.487,1.101 16.336,-0.725c3.995,-1.506 8.219,-1.58 11.99,-3.345c0.902,-0.422 1.729,-0.834 2.588,-0.358c5.219,2.895 10.234,0.409 15.245,-0.644c2.513,-0.529 4.986,-0.376 7.311,0.09c2.671,0.535 5.321,2.636 6.499,-1.802c0.068,-0.258 0.718,-0.535 1.084,-0.516c9.082,0.457 17.7,-2.408 26.545,-3.514c3.977,-0.496 8.086,-0.878 12.144,-1.151c9.561,-0.643 19.02,-2.788 28.526,-3.007c9.387,-0.217 18.703,-1.528 27.728,-3.084c5.999,-1.034 12.425,0.523 17.361,-1.541c6.35,-2.655 12.659,0.501 17.947,-1.676c7.333,-3.021 14.81,-1.532 22.057,-3.097c1.739,-0.375 3.711,-0.47 5.328,0.832c0.237,0.192 0.725,0.493 0.765,0.448c3.506,-3.916 5.478,0.083 8.1,1.395c1.699,0.852 3.387,0.864 4.054,-1.943c0.877,-3.682 5.989,-6.511 9.395,-4.838c3.678,1.807 8.048,-1.171 11.346,2.299c0.705,0.742 1.822,-0.395 1.897,-1.76c0.183,-3.323 0.807,-4.274 5.176,-4.075c5.184,0.235 10.714,0.522 15.996,-0.337c8.575,-1.396 17.532,0.792 25.691,-1.241c9.53,-2.375 19.43,-1.407 28.72,-4.584c1.861,-0.636 3.887,-0.794 5.837,-1.173c1.278,2.081 2.548,4.204 4.933,1.042c0.948,-0.235 1.894,-0.472 2.843,-0.707c4.231,1.61 3.255,-3.429 5.524,-4.328l4.512,-0.681c0.658,0.816 -0.698,2.968 1.336,2.665c2.103,-0.312 1.118,-2.408 1.386,-3.758c0.63,-0.224 1.259,-0.447 1.89,-0.67c0.554,0.224 1.25,0.307 1.642,0.696c3.47,3.443 7.777,3.448 11.293,-0.051c0.623,-0.175 1.247,-0.35 1.869,-0.526c5.231,1.549 9.896,0.625 14.162,-2.875c1.803,-1.479 5.098,-2.512 6.361,-1.692c3.556,2.308 6.693,0.339 9.497,-0.458c3.079,-0.875 6.583,0.068 9.256,-2.036c4.565,-3.591 9.553,-5.265 15.478,-5.088c4.129,0.125 8.91,1.358 12.045,-3.139c0.337,-0.483 1.44,-0.726 2.121,-0.627c4.898,0.709 8.794,-2.168 12.348,-4.438c2.742,-1.752 4.224,-1.426 6.436,-0.105c1.428,0.853 3.449,2.647 4.536,1.538c2.583,-2.635 5.784,-1.896 8.665,-2.204c0.166,-1.879 -2.981,-3.1 -1.626,-3.398c3.779,-0.833 1.076,-4.001 2.63,-5.35" style="fill-rule:nonzero;"/><path d="M1629.62,98.097c-4.215,2.176 -7.89,6.115 -13.297,3.937c-0.802,-0.322 -2.019,-0.221 -2.052,-1.406c-0.033,-1.216 1.213,-1.039 1.973,-1.392c4.291,-1.998 8.819,-1.581 13.376,-1.139" style="fill-rule:nonzero;"/><path d="M553.924,346.542c0.114,0.358 0.434,0.856 0.304,1.047c-0.409,0.597 -0.933,0.377 -1.37,-0.081c0.354,-0.321 0.71,-0.644 1.066,-0.966" style="fill-rule:nonzero;"/><path d="M796.686,65.551c0.287,2.064 2.017,4.202 -1.178,5.856c-1.457,0.754 -1.636,3.453 -0.971,4.658c1.289,2.34 0.119,4.132 -0.368,6.095c-0.713,2.888 -2.454,5.275 -0.848,8.847c1,2.226 -0.368,5.835 -1.394,8.55c-0.832,2.208 -2.241,3.404 -5.232,1.212c-4.748,-3.479 -6.951,-7.486 -6.751,-13.355c0.089,-2.641 -3.119,-3.121 -4.897,-3.02c-4.255,0.242 -4.659,-1.941 -4.172,-5.135c0.188,-1.229 1.647,-2.876 -0.622,-3.317c-1.625,-0.316 -3.84,0.103 -4.321,1.924c-2.383,8.993 -10.956,8.431 -17.24,10.784c-3.573,1.338 -8.487,-0.625 -11.298,-3.388c-2.435,-2.393 0.312,-5.542 1.958,-8.047c1.342,-0.016 2.853,0.348 3.389,-1.496c2.245,-0.568 4.245,-1.548 5.732,-3.396c5.463,-2.408 10.896,-4.832 16.009,-7.99c3.49,-2.157 7.155,-4.046 11.334,-4.89c2.339,-0.473 4.553,-1.891 5.481,-4.482c2.378,-0.548 4.967,0.119 7.2,-1.256l1.05,0.202c1.277,1.617 2.042,3.395 1.905,5.516c-0.131,2.021 0.698,3.567 2.497,4.556c0.912,0.524 1.824,1.048 2.737,1.572" style="fill-rule:nonzero;"/><path d="M341.594,226.389c-1.336,4.203 -2.786,8.099 -7.218,10.416c-3.391,1.774 -5.018,6.23 -8.763,7.524c-5.878,2.031 -8.448,7.798 -13.308,10.835c-2.693,1.683 -5.624,2.97 -7.861,5.33c-0.302,0.32 -0.87,0.605 -1.284,0.568c-5.349,-0.483 -8.672,3.407 -12.667,5.826c-1.045,0.632 -2.128,0.032 -3.122,0.253c-1.622,0.359 -3.245,1.143 -4.234,2.42c-4.065,5.253 -10.088,5.522 -15.839,6.44c-2.535,0.405 -5.08,-1.259 -7.692,-0.198c-0.236,0.096 -0.715,-0.124 -0.944,-0.342c-3.558,-3.353 -4.199,-10.735 -1.266,-14.295l0.128,-0.098c3.322,-0.231 5.962,-2.4 8.798,-3.701c1.376,-0.632 4.726,-1.337 4.476,-4.469c0.569,-0.518 1.139,-1.038 1.707,-1.557c1.811,-0.518 2.891,-1.802 3.624,-3.452l-0.001,0.001c0.646,-0.27 1.288,-0.548 1.937,-0.809c3.732,-1.497 8.261,-1.446 10.675,-5.502c1.744,-1.028 2.827,-2.664 3.92,-4.29c1.373,0.255 2.571,0.171 2.936,-1.522c1.391,-0.524 2.781,-1.048 4.172,-1.573c1.244,-0.134 1.869,-1.09 2.571,-1.942l0.202,0.047l0.095,-0.185c1.47,-0.153 2.458,-1.25 3.683,-1.883c3.393,-2.194 6.785,-4.39 10.178,-6.583c0.497,-0.321 0.98,-0.883 1.497,-0.917c5.605,-0.375 4.321,-4.394 3.82,-7.631c-0.21,-1.359 0.641,-2.51 0.137,-3.761l0.67,-1.456l0.045,-0.035c2.434,-1.19 3.912,-3.035 5.139,-5.554c1.391,-2.854 0.149,-7.303 4.678,-8.468c0.228,-0.058 0.203,-1.092 0.3,-1.671c0.152,-0.91 0.697,-1.474 1.551,-1.781c3.319,-1.192 5.423,-3.775 7.436,-6.473c0.635,-0.852 1.502,-2.433 2.005,-2.336c3.413,0.655 4.113,-2.75 6.276,-3.86c1.37,-0.702 0.573,-3.015 2.319,-3.288c2.576,-0.404 4.023,-2.11 5.314,-4.096c1.256,0.045 2.512,0.092 3.768,0.138c0.214,0.591 0.583,1.008 1.237,1.108c-0,-0 -0.069,-0.064 -0.068,-0.064c1.012,2.642 -0.717,4.519 -2.587,5.038c-4.038,1.117 -4.514,3.876 -4.072,7.101c0.458,3.343 -1.276,4.43 -4.062,4.755c-0.939,0.109 -1.914,-0.075 -2.853,0.039c-2.366,0.288 -3.708,2.194 -4.849,3.858c-0.848,1.234 0.777,1.866 1.891,2.324c0.215,0.088 0.403,0.851 0.36,0.875c-2.335,1.329 -0.822,4.935 -3.51,5.989c-2.845,1.114 -3.187,4.375 -5.332,6.087c-0.542,0.432 -0.475,1.101 -0.039,1.59c0.406,0.454 0.98,0.726 1.609,0.45c0.891,-0.393 1.513,-1.056 2.089,-1.867c2.412,-3.399 5.643,-5.657 9.605,-7.038c2.784,-0.972 6.055,-1.74 7.963,-3.709c2.064,-2.129 4.05,-2.778 6.721,-3.18c1.875,-0.282 5.236,-0.307 5.399,-1.649c0.522,-4.285 3.965,-5.341 6.538,-7.427c-0,0 0.126,-0.115 0.126,-0.116c0.726,-0.83 1.816,-1.033 2.693,-1.572c2.809,-1.725 6.494,-1.996 8.486,-5.073l-0.049,0.042c0.919,-0.517 1.838,-1.034 2.757,-1.55c2.498,-0.866 4.855,-1.028 6.722,-4.062c1.197,-1.944 4.611,-4.062 7.568,-5.108c5.202,-1.839 9.632,-4.82 13.538,-8.624c1.212,-1.181 2.847,-1.188 4.238,-1.671c3.525,-1.227 6.545,-2.972 8.858,-5.914c1.456,-1.849 4.02,-1.354 5.704,-2.573c3.318,-2.403 6.502,-4.954 10.195,-6.826c2.327,-1.18 3.886,-3.948 7.082,-3.286c0.21,0.042 0.525,-0.03 0.678,-0.172c4.803,-4.433 11.11,-6.592 16.152,-10.542c3.298,-2.585 7.408,-3.219 10.593,-5.655c3.506,-2.681 7.681,-4.314 11.079,-7.045c3.746,-3.011 8.045,-4.537 12.482,-5.901c0.653,-0.2 1.661,0.109 1.936,-0.605c1.214,-3.147 4.344,-4.034 6.635,-5.916c1.477,-1.213 2.763,-2.331 4.863,-2.657c2.403,-0.374 4.378,-2.525 5.907,-4.031c2.553,-2.515 6.368,-3.037 8.351,-6.085c2.54,-1.789 5.487,-3.059 7.319,-5.751c0.505,0.083 1.035,0.256 1.358,-0.355c3.304,0.03 5.485,-2.068 7.658,-4.116c0.6,-0.566 1.002,-1.421 1.934,-1.408c4.921,0.073 8.247,-3.281 12.076,-5.556c0.239,0.007 0.378,-0.107 0.415,-0.345c1.545,-1.31 3.258,-2.456 5.252,-2.724c1.437,-0.195 2.12,-0.825 2.516,-2.056l2.268,-0.873c3.678,-0.639 6.746,-2.402 9.322,-5.071c4.224,0.321 6.59,-3.083 9.825,-4.779c3.791,-1.988 7.524,-4.998 12.374,-2.416c3.104,1.651 4.705,8.715 2.87,11.682c-2.093,3.38 -5.628,4.356 -8.515,6.432c-5.76,4.143 -12.552,4.822 -18.757,7.334c-0.632,0.255 -1.398,0.588 -1.728,1.118c-2.181,3.495 -5.776,4.891 -9.33,6.174c-3.519,1.269 -6.64,3.148 -9.699,5.207c-1.046,0.005 -2.444,-0.295 -2.754,0.973c-0.55,2.253 -1.96,2.971 -4.041,3.198c-0.66,0.073 -1.04,0.904 -1.145,1.656c-0.686,0.348 -1.371,0.697 -2.056,1.045c-1.987,1.201 -4.585,-1.374 -6.348,0.969c-1.956,2.6 -5.25,3.579 -7.242,6.115c-0.869,-0.171 -1.622,-0.025 -2.134,0.783c-1.324,-0.006 -2.789,-0.778 -3.837,0.71c-0.25,-0.048 -0.433,0.04 -0.549,0.267c-3.298,1.472 -6.417,2.924 -9.215,5.571c-3.471,3.284 -8.313,4.926 -12.473,7.448c-2.535,1.536 -4.984,3.533 -7.965,4.28c-2.705,0.678 -4.72,2.109 -6.028,4.558l-0.05,0.054c-1.224,0.571 -2.044,1.584 -3.518,2.046c-8.564,2.685 -16.126,7.284 -22.98,13.056c-0.881,-0.264 -1.67,-0.244 -2.165,0.693c-4.306,2.393 -8.675,4.735 -13.069,6.883c-4.934,2.412 -9.249,5.699 -13.646,8.736c-3.075,2.125 -5.682,3.507 -9.295,2.903c-1.564,-0.262 -3.171,0.197 -3.646,1.598c-1.721,5.08 -5.78,6.605 -10.344,8.279c-2.244,0.824 -4.373,-0.186 -5.878,0.576c-2.507,1.27 -5.006,3.337 -6.483,5.708c-3.503,5.617 -3.341,5.851 -9.403,4.863c-1.563,-0.255 -3.442,-0.165 -3.743,1.195c-0.888,4.011 -5.08,4.049 -7.321,6.47c-1.535,1.657 -4.314,2.397 -5.901,4.591c-1.154,1.595 -2.535,2.982 -4.958,2.956c-1.229,-0.013 -2.463,1.028 -3.657,1.847c-2.661,1.828 -4.955,4.757 -8.425,4.823c-2.313,0.044 -4.242,0.65 -5.926,1.922c-3.747,2.83 -6.516,6.797 -11.049,8.838c-1.12,0.504 -4.032,2.205 -2.626,5.04c0.073,0.481 0.146,0.963 0.22,1.445" style="fill-rule:nonzero;"/></g></svg>