<?xml version="1.0" encoding="UTF-8" standalone="no"?><!DOCTYPE svg PUBLIC "-//W3C//DTD SVG 1.1//EN" "http://www.w3.org/Graphics/SVG/1.1/DTD/svg11.dtd"><svg width="100%" height="100%" viewBox="0 0 1742 342" version="1.1" xmlns="http://www.w3.org/2000/svg" xmlns:xlink="http://www.w3.org/1999/xlink" xml:space="preserve" xmlns:serif="http://www.serif.com/" style="fill-rule:evenodd;clip-rule:evenodd;stroke-linejoin:round;stroke-miterlimit:2;"><g><g><path d="M1263.75,181.374c-64.629,11.831 -131.597,22.967 -195.352,17.511c-13.362,-1.143 -27.146,-3.911 -36.805,-13.868c-6.113,-6.301 -10.346,-14.183 -15.754,-20.185c-6.772,-7.516 -15.018,-12.629 -28.471,-11.163c-25.871,2.82 -49.635,15.957 -73.575,29.584c-22.446,12.777 -45.063,25.993 -70.241,29.818c-18.321,2.783 -35.041,-0.163 -51.544,-4.539c-17.5,-4.639 -34.766,-10.864 -53.237,-14.33c-34.544,-6.483 -71.893,-3.573 -106.553,0.315c-139.507,15.648 -279.999,38.269 -418.82,59.616c-67.447,10.372 -135.084,24.509 -203.456,26.772c-3.593,0.119 -6.413,3.132 -6.294,6.724c0.119,3.593 3.132,6.413 6.725,6.294c68.89,-2.281 137.046,-16.466 205.005,-26.916c138.646,-21.32 278.96,-43.918 418.292,-59.547c33.406,-3.747 69.404,-6.705 102.698,-0.457c18.151,3.406 35.107,9.561 52.302,14.119c18.193,4.824 36.642,7.894 56.838,4.826c26.743,-4.063 50.888,-17.804 74.728,-31.375c22.347,-12.721 44.394,-25.323 68.543,-27.955c10.159,-1.108 15.421,4.115 20.211,10.367c4.239,5.532 8.139,11.829 13.254,17.101c11.893,12.259 28.592,16.369 45.043,17.777c59.129,5.06 121.001,-3.87 181.272,-14.562c-2.826,3.164 -5.59,6.39 -8.287,9.674c-35.522,43.246 -21.002,22.518 -53.962,69.328c-11.506,16.343 -19.781,35.172 -19.071,47.064c0.301,5.037 2.01,9.134 4.968,12.113c2.741,2.759 6.653,4.693 12.117,5.097c6.027,0.445 14.521,-1.091 25.906,-5.693c3.332,-1.348 4.944,-5.147 3.597,-8.479c-1.348,-3.332 -5.147,-4.944 -8.479,-3.597c-6.546,2.647 -11.873,4.162 -16.158,4.655c-3.048,0.35 -5.372,0.256 -7.025,-0.637c-1.091,-0.59 -1.552,-1.685 -1.78,-2.97c-0.288,-1.628 -0.199,-3.499 0.118,-5.547c1.531,-9.866 8.241,-22.839 16.457,-34.507c32.598,-46.296 18.246,-25.789 53.377,-68.559c6.23,-7.585 12.826,-14.854 19.754,-21.829c20.952,-3.828 41.638,-7.694 61.881,-11.073c108.675,-18.139 229.723,-28.007 329.334,-79.041c14.023,-7.185 47.459,-24.964 65.63,-44.756c8.952,-9.75 14.194,-20.164 13.52,-30.05c-0.672,-9.843 -6.556,-16.184 -14.814,-19.938c-10.058,-4.573 -23.992,-4.913 -32.748,-4.197c-43.788,3.584 -87.065,16.605 -129.082,28.656c-102.724,29.463 -221.067,70.801 -300.062,148.359Zm23.845,-4.386c14.253,-2.621 28.348,-5.177 42.233,-7.494c107.397,-17.926 227.099,-27.352 325.539,-77.787c11.392,-5.836 36.375,-18.942 54.119,-34.391c5.564,-4.844 10.404,-9.9 13.736,-15.052c2.786,-4.308 4.531,-8.609 4.239,-12.884c-0.413,-6.048 -5.504,-8.766 -11.106,-10.383c-7.547,-2.179 -16.447,-2.143 -22.399,-1.656c-42.937,3.514 -85.353,16.378 -126.553,28.195c-94.556,27.12 -202.862,64.084 -279.808,131.452Z"/><path d="M818.642,67.525c-27.458,0.101 -59.565,14.48 -84.368,24.922c-3.313,1.395 -4.87,5.216 -3.475,8.529c1.394,3.313 5.216,4.87 8.529,3.475c23.368,-9.838 53.493,-23.806 79.362,-23.901c3.595,-0.013 6.502,-2.942 6.489,-6.536c-0.014,-3.595 -2.942,-6.502 -6.537,-6.489Z"/><path d="M355.617,121.122c50.263,-12.632 100.387,-25.549 150.458,-39.656c3.46,-0.975 5.477,-4.575 4.503,-8.035c-0.975,-3.46 -4.575,-5.477 -8.035,-4.502c-72.98,20.562 -146.072,38.587 -219.566,56.902c-10.992,2.739 -31.556,10.556 -42.378,22.098c-4.294,4.579 -7.154,9.744 -7.987,15.312c-0.856,5.719 0.325,11.971 4.789,18.614c6.878,10.235 17.808,12.82 30.483,10.194c23.952,-4.962 54.918,-30.119 65.055,-38.969c3.406,-2.974 13.022,-11.807 18.417,-20.761c2.276,-3.779 3.794,-7.629 4.261,-11.197Zm-14.908,3.738c-18.179,4.549 -36.369,9.07 -54.583,13.609c-9.3,2.318 -26.869,8.603 -36.026,18.369c-2.366,2.524 -4.148,5.261 -4.607,8.33c-0.436,2.918 0.441,6.033 2.719,9.422c2.881,4.288 7.276,5.609 12.279,5.346c4.3,-0.227 8.989,-1.533 13.818,-3.446c20.05,-7.943 42.047,-26.222 50.063,-33.222c2.525,-2.204 9.039,-8.09 13.782,-14.607c0.922,-1.267 1.81,-2.541 2.555,-3.801Z"/></g></g></svg>